<svg height="1841.793" viewBox="0 0 1386.31 1841.793" width="1386.31" xmlns="http://www.w3.org/2000/svg"><path d="m1053.487 1778.302h-710.599l69.729-568.557c19.019-155.077 141.13-270.928 285.57-270.928 144.44 0 266.551 115.85 285.57 270.928l69.729 568.557z" fill="#d3cfff"/><path d="m1053.487 1788.303h-710.599c-2.864 0-5.591-1.229-7.489-3.373-1.898-2.146-2.785-5.001-2.437-7.845l69.729-568.557c9.48-77.302 44.567-148.207 98.795-199.655 54.415-51.625 124.271-80.056 196.701-80.056s142.287 28.431 196.701 80.056c54.229 51.448 89.315 122.354 98.795 199.655l69.729 568.557c.349 2.844-.539 5.699-2.437 7.845-1.898 2.145-4.625 3.373-7.489 3.373zm-699.298-20h687.997l-68.354-557.341c-18.329-149.446-136.83-262.145-275.645-262.145s-257.317 112.698-275.645 262.145l-68.354 557.341z"/><path d="m587.81 1774.205-244.922 4.097-3.285-346.014h248.207z" fill="#fff"/><path d="m342.888 1788.303c-2.604 0-5.109-1.017-6.978-2.837-1.909-1.859-2.997-4.403-3.022-7.068l-3.285-346.015c-.025-2.668 1.017-5.236 2.895-7.132s4.436-2.963 7.104-2.963h248.208c5.523 0 10 4.478 10 10v341.917c0 5.458-4.376 9.907-9.833 9.999l-244.922 4.098c-.056 0-.112 0-.167 0zm244.922-14.098h.01zm-238.112-331.917 3.094 325.848 225.019-3.765v-322.083h-228.112z"/><path d="m737.547 1210.035c-3.301 0-6.449-1.64-8.327-4.465-39.852-59.953-144.25-235.863-145.299-237.634-1.493-2.516-1.809-5.559-.865-8.327.943-2.77 3.052-4.986 5.771-6.066 5.18-2.061 127.614-49.999 193.721-11.342 6.749 3.947 9.297 11.905 7.608 50.998-.906 20.958-2.838 43.284-3.566 51.689-.107 1.24-.187 2.139-.226 2.634-.012.448-.054.9-.127 1.355v.004s0 .002 0 .003c-5.813 35.755-12.916 57.188-19.786 77.916-6.928 20.905-13.473 40.651-19.03 74.838-.66 4.06-3.739 7.302-7.759 8.17-.704.152-1.412.227-2.112.227zm-130.247-241.911c20.418 34.296 86.543 145.025 125.052 205.512 4.747-21.854 9.994-37.686 15.112-53.127 6.897-20.811 13.413-40.469 18.954-74.368.008-.17.02-.342.035-.516l.211-2.461c5.328-61.545 4.081-79.898 3.183-85.146-47.749-25.229-132.346-.224-162.546 10.106z"/><path d="m407.948 983.028c-52.152-3.456-105.846 25.106-138.963 65.541-37.654 45.974-36.143 87.054-66.852 137.931-24.285 40.235-63.125 70.502-87.411 110.737-13.857 22.958-25.107 60.078-40.043 91.347-14.935 31.268-43.628 62.307-52.556 87.593-17.855 50.571-14.385 84.729 0 136.395 9.713 34.888 16.297 83.458 42.545 112.62 20.145 22.381 47.55 33.786 83.582 37.449 45.716 4.648 93.917 13.162 132.943-11.099 23.072-14.343 40.953-35.499 58.428-56.299 38.7-46.062 57.222-86.272 69.162-145.237 7.086-34.995 29.708-80.078 46.465-111.607 83.673-157.429 86.069-271.947 75.064-318.75-16.713-71.08-70.12-109.413-70.12-109.413s-13.87-24.664-52.247-27.208z" fill="#fff"/><path d="m214.286 1777.976c-17.593 0-35.484-1.962-53.128-3.896-4.657-.511-9.3-1.021-13.918-1.49-40.072-4.073-68.671-17.009-90.002-40.707-22.469-24.964-31.229-61.452-38.957-93.646-1.96-8.163-3.811-15.874-5.79-22.981-14.642-52.594-18.631-89.059.204-142.407 5.188-14.693 15.864-30.258 27.167-46.736 9.411-13.72 19.142-27.907 25.795-41.837 6.157-12.891 11.741-26.973 17.142-40.591 7.676-19.354 14.925-37.636 23.362-51.614 12.628-20.921 28.992-39.197 44.817-56.871 15.909-17.769 30.937-34.552 42.594-53.865 12.818-21.236 19.91-41.014 26.769-60.14 9.099-25.374 18.508-51.612 40.908-78.96 37.255-45.488 95.106-72.634 147.36-69.184 37.073 2.457 54.384 23.512 59.011 30.255 9.465 7.279 56.498 46.3 72.429 114.055 7.178 30.526 6.479 74.972-1.918 121.939-11.524 64.462-36.438 133.028-74.05 203.793-16.258 30.59-38.663 75.16-45.494 108.898-12.444 61.452-32.437 103.42-71.307 149.686-16.951 20.174-36.163 43.04-60.805 58.358-22.379 13.912-46.978 17.941-72.188 17.941zm185.167-785.227c-43.912 0-91.313 23.797-122.731 62.156-20.211 24.678-28.636 48.169-37.554 73.039-7.19 20.049-14.624 40.78-28.472 63.724-12.628 20.921-28.992 39.197-44.817 56.871-15.909 17.769-30.937 34.552-42.594 53.865-7.58 12.559-14.533 30.091-21.894 48.651-5.524 13.93-11.236 28.334-17.687 41.838-7.326 15.338-17.505 30.179-27.35 44.53-10.537 15.362-20.489 29.872-24.8 42.082-17.162 48.609-13.608 80.773.204 130.385 2.075 7.453 3.967 15.334 5.97 23.677 7.173 29.879 15.302 63.745 34.375 84.934 17.809 19.785 42.327 30.649 77.16 34.191 4.67.475 9.366.989 14.076 1.506 39.552 4.336 80.45 8.822 112.577-11.149 21.937-13.637 39.28-34.277 56.051-54.238 36.986-44.022 55.149-82.18 67.017-140.789 7.349-36.293 30.592-82.624 47.437-114.316 75.461-141.979 87.112-256.683 74.16-311.768-15.674-66.659-65.713-103.217-66.216-103.578-1.23-.883-2.146-1.856-2.865-3.185-.815-1.352-12.671-20.078-44.212-22.168-2.595-.173-5.209-.258-7.834-.258zm52.076 22.476h.01z"/><path d="m956.867 953.122c51.304-.134 54.26 27.062 78.834 57.114 11.294 13.812 31.126 25.601 41.554 38.333 37.654 45.974 36.143 87.054 66.852 137.931 24.285 40.235 63.125 70.502 87.411 110.737 13.857 22.958 25.107 60.078 40.043 91.347 14.935 31.268 43.628 62.307 52.556 87.593 17.855 50.571 14.385 84.729 0 136.395-9.713 34.888-24.971 109.245-51.22 138.407-20.145 22.381-46.169 23.248-82.201 26.911-45.716 4.648-86.624-2.088-125.65-26.348-23.072-14.343-40.953-35.499-58.428-56.299-38.7-46.062-57.222-86.272-69.162-145.237-7.086-34.995-29.708-80.078-46.465-111.607-83.673-157.429-86.069-271.947-75.064-318.75 16.713-71.08 70.12-109.413 70.12-109.413s32.361-57.014 70.822-57.114z" fill="#fff"/><path d="m1164.425 1789.276c-39.153 0-72.921-9.511-104.659-29.24-24.645-15.32-43.855-38.186-60.805-58.359-38.871-46.266-58.864-88.233-71.307-149.686-6.832-33.74-29.237-78.31-45.495-108.898-37.611-70.765-62.525-139.331-74.05-203.793-8.397-46.968-9.096-91.413-1.918-121.939 15.833-67.34 62.389-106.297 72.25-113.917 6.339-10.517 38.417-60.216 78.399-60.32h.387c44.644 0 58.177 20.263 72.503 41.711 4.132 6.187 8.406 12.585 13.711 19.073 5.129 6.273 12.777 12.517 20.172 18.554 7.688 6.276 15.638 12.767 21.377 19.774 22.399 27.349 31.809 53.586 40.908 78.96 6.859 19.126 13.951 38.903 26.769 60.139 11.657 19.314 26.685 36.098 42.594 53.866 15.825 17.674 32.189 35.95 44.817 56.871 8.437 13.979 15.687 32.26 23.362 51.614 5.401 13.618 10.985 27.7 17.142 40.591 6.653 13.93 16.384 28.116 25.795 41.836 11.303 16.479 21.979 32.044 27.167 46.737 18.835 53.349 14.847 89.813.204 142.407-1.609 5.777-3.428 12.874-5.354 20.387-10.38 40.493-24.596 95.952-48.067 122.028-21.208 23.563-47.421 26.128-80.608 29.375-2.615.256-5.285.517-8.013.794-9.392.955-18.473 1.437-27.282 1.437zm-207.558-836.154.026 10c-26.694.069-53.918 37.602-62.156 52.057-.713 1.251-1.691 2.341-2.861 3.181-.491.354-50.617 37.233-66.217 103.578-12.952 55.084-1.302 169.788 74.16 311.768 16.844 31.691 40.087 78.021 47.437 114.316 11.867 58.609 30.031 96.767 67.017 140.789 16.771 19.96 34.112 40.6 56.051 54.239 34.925 21.712 72.855 29.622 119.359 24.893 2.753-.28 5.449-.544 8.088-.803 31.118-3.045 51.675-5.057 67.691-22.85 20.183-22.424 34.25-77.301 43.559-113.615 1.952-7.615 3.796-14.809 5.46-20.785 13.813-49.61 17.366-81.774.204-130.384-4.311-12.21-14.264-26.721-24.801-42.083-9.844-14.352-20.023-29.192-27.349-44.529-6.45-13.504-12.163-27.908-17.687-41.838-7.361-18.562-14.314-36.093-21.894-48.65-11.658-19.314-26.685-36.098-42.594-53.866-15.825-17.674-32.189-35.95-44.817-56.872-13.848-22.942-21.282-43.674-28.472-63.723-8.918-24.87-17.343-48.361-37.554-73.039-4.468-5.455-11.31-11.04-18.553-16.953-8.162-6.664-16.603-13.555-23.007-21.387-5.917-7.236-10.668-14.35-14.86-20.625-13.658-20.447-21.923-32.818-55.839-32.818h-.366l-.026-10zm-70.822 57.113h.01z"/><path d="m498.881 958.127c-18.877 7.096-39.441 22.071-34.767 40.043 9.881 37.995 14.533 108.826 24.414 146.821 10.237 39.363 10.111 81.689 12.853 122.268 4.162 61.601 8.514 114.725 8.74 176.466.244 66.65-.178 149.282 3.542 223.915 2.008 40.291 17.366 76.158 7.164 110.663 69.551-.281 276.335 0 276.335 0s-11.469-70.958-12.065-86.353c-2.013-52.017-12.299-103.316-22.552-154.353-13.001-64.714-26.002-129.427-39.003-194.141-16.658-82.917-33.454-166.314-64.053-245.158-16.203-41.75-12.706-43.291-33.668-82.824-6.315-11.91-30.967-74.189-44.11-76.656-5.312-.997-29.04 9.105-35.298 10.35-9.549 1.9-23.993.111-47.532 8.959z" fill="#fff"/><path d="m797.162 1788.303h-.014c-2.067-.003-207.553-.277-276.281 0h-.041c-3.146 0-6.11-1.48-7.999-3.999-1.897-2.528-2.487-5.805-1.591-8.836 5.883-19.898 2.094-41.504-1.917-64.378-2.406-13.72-4.895-27.905-5.645-42.952-3.196-64.123-3.345-133.479-3.476-194.673-.021-10.185-.043-20.109-.078-29.704-.193-52.687-3.476-100.028-6.952-150.15-.584-8.422-1.177-16.965-1.765-25.678-.607-8.986-1.082-18.187-1.541-27.083-1.612-31.271-3.28-63.604-11.014-93.343-5.094-19.586-8.829-47.556-12.44-74.604-3.533-26.454-7.186-53.809-11.973-72.217-6.388-24.564 18.055-43.322 40.926-51.92 18.057-6.788 31.12-7.777 40.659-8.499 3.363-.255 6.267-.475 8.441-.907 1.591-.316 6.708-2.134 10.82-3.594 15.48-5.496 22.833-7.797 28.273-6.777 13.085 2.457 24.899 24.017 44.886 68.411 2.671 5.934 4.979 11.059 6.214 13.389 14.109 26.609 17.55 36.807 22.758 52.242 2.76 8.18 5.888 17.451 11.398 31.648 30.997 79.872 48.046 164.736 64.534 246.807l39.003 194.141c10.172 50.634 20.691 102.992 22.741 155.936.47 12.128 8.782 65.574 11.945 85.145.468 2.896-.359 5.851-2.262 8.083-1.9 2.229-4.682 3.513-7.61 3.513zm-173.953-20.124c64.286 0 134.857.076 162.234.109-3.3-20.971-9.871-63.883-10.339-75.952-1.987-51.345-12.346-102.906-22.364-152.77l-39.003-194.141c-16.321-81.239-33.198-165.245-63.571-243.51-5.672-14.615-9.016-24.526-11.703-32.49-5.069-15.025-8.129-24.094-21.478-49.268-1.538-2.9-3.852-8.04-6.781-14.547-4.573-10.158-10.836-24.069-17.073-35.858-7.621-14.406-11.851-19.26-13.53-20.807-3.974.82-12.679 3.911-17.628 5.668-6.569 2.332-10.741 3.791-13.609 4.361-3.36.669-6.823.931-10.833 1.234-8.8.666-19.752 1.496-35.132 7.277-16.266 6.114-31.315 17.752-28.607 28.166 5.094 19.586 8.829 47.555 12.44 74.604 3.533 26.454 7.186 53.809 11.973 72.217 8.246 31.708 9.966 65.076 11.631 97.346.455 8.818.925 17.938 1.521 26.766.588 8.7 1.18 17.231 1.763 25.642 3.499 50.458 6.804 98.118 7 151.462.035 9.604.057 19.538.078 29.733.131 60.97.279 130.073 3.452 193.72.688 13.809 3.067 27.374 5.368 40.493 3.647 20.796 7.128 40.643 4.213 60.627 23.196-.062 55.696-.083 89.977-.083zm-124.328-810.052h.01z"/><path d="m889.829 962.145c18.877 7.096 40.719 48.091 51.221 76.485 13.618 36.821 38.803 131.823 49.198 179.416 8.679 39.735 22.561 112.806 26.859 163.301 5.236 61.519 25.784 190.159 36.381 268.587 5.401 39.977 17.108 91.32 17.108 128.403-69.551-.281-276.335 0-276.335 0s3.823-144.692 2.903-292.778c-.225-36.258-.167-83.955 0-117.104.341-67.803 0-122.922 0-147.186 0-54.792-11.589-138.129-11.589-187.549 0-13.481-8.715-94.083 4.427-96.55 5.312-.997 47.011 10.788 53.269 12.033 9.549 1.9 23.02 4.094 46.56 12.942z" fill="#fff"/><path d="m1070.594 1788.337h-.04c-68.729-.276-274.214-.003-276.281 0h-.014c-2.695 0-5.276-1.088-7.159-3.018-1.885-1.934-2.909-4.547-2.837-7.247.038-1.445 3.809-146.233 2.899-292.451-.24-38.651-.15-87.301 0-117.216.251-49.949.131-93.261.052-121.92-.029-10.318-.052-18.834-.052-25.216 0-27.676-3.041-63.2-5.982-97.555-2.883-33.682-5.607-65.495-5.607-89.995 0-2.436-.377-8.185-.813-14.842-4.067-62.016-3.104-88.439 13.396-91.536 4.815-.903 13.697.878 45.253 9.075 5.3 1.377 10.306 2.678 11.812 2.978.855.17 1.742.343 2.666.522 9.824 1.911 23.277 4.528 45.462 12.867 30.561 11.487 56.013 79.487 57.081 82.377 14.322 38.727 39.562 134.849 49.588 180.751 7.938 36.347 22.57 111.912 27.053 164.587 3.522 41.388 14.299 115.25 23.807 180.418 4.678 32.06 9.096 62.343 12.52 87.678 1.707 12.632 4.027 26.274 6.485 40.719 5.267 30.958 10.712 62.97 10.712 89.023 0 2.659-1.059 5.209-2.943 7.085-1.875 1.867-4.412 2.915-7.057 2.915zm-276.044-840.722c-.83 3.466-1.887 10.907-1.805 26.215.08 14.888 1.173 31.563 1.972 43.739.497 7.582.856 13.06.856 16.15 0 23.646 2.688 55.045 5.534 88.289 2.977 34.773 6.055 70.73 6.055 99.261 0 6.368.023 14.865.052 25.16.079 28.691.199 72.049-.052 122.075-.15 29.864-.24 78.423 0 116.991.771 124.095-1.82 247.146-2.655 282.828 40.394-.05 189.318-.21 255.821-.022-1.136-22.578-5.715-49.492-10.162-75.634-2.487-14.618-4.836-28.425-6.588-41.396-3.409-25.23-7.819-55.462-12.49-87.468-10.015-68.644-20.372-139.624-23.944-181.61-4.396-51.648-18.83-126.141-26.665-162.015-10.844-49.646-35.999-143.446-48.808-178.081-12.682-34.291-33.03-65.959-45.36-70.594-20.614-7.748-33.115-10.181-42.244-11.956-.953-.186-1.868-.363-2.75-.539-1.976-.393-5.998-1.432-12.938-3.235-8.213-2.134-25.585-6.646-33.83-8.159z"/><path d="m631.437 806.617h125.486v140.876c0 34.629-28.114 62.743-62.743 62.743-34.629 0-62.743-28.114-62.743-62.743z" fill="#fff"/><path d="m694.18 1020.235c-40.111 0-72.743-32.632-72.743-72.742v-140.876c0-5.522 4.477-10 10-10h125.486c5.523 0 10 4.478 10 10v140.876c0 40.11-32.632 72.742-72.743 72.742zm-52.744-203.618v130.876c0 29.082 23.661 52.742 52.743 52.742s52.743-23.66 52.743-52.742v-130.876z"/><path d="m388.718 359.925c-21.538-11.385-106.454-46.441-100.293-54.701 10.077-13.51 40.353-36.436 51.178-49.287 10.495-12.46 21.157-24.673 32.007-36.605 14.976-16.468 30.316-27.276 46.075-42.584 9.435-9.165 23.04-18.285 32.79-26.983 11.544-10.298 26.581-22.129 38.608-31.713 9.473-7.55 11.819-17.941 21.616-25.013 10.247-7.397 36.223-26.532 46.848-33.372 29.506-18.994 35.618-35.488 68.393-49.666 46.481 33.974 102.316 79.674 148.797 113.648 32.127 23.482 55.582 18.905 74.225 55.073 1.224 2.374-18.877 15.23-39.297 38.608-66.716 76.379-206.827 232.959-206.827 232.959s-75.426-41.734-126.267-61.637c-28.993-11.35-60.212-14.114-87.853-28.726z" fill="#fff"/><path d="m602.833 460.287c-1.65 0-3.314-.407-4.837-1.25-.749-.414-75.441-41.646-125.071-61.075-11.553-4.522-23.397-7.596-35.936-10.849-17.608-4.569-35.816-9.293-52.945-18.348-5.505-2.91-15.63-7.571-27.354-12.969-61.098-28.129-75.716-36.846-78.207-46.633-.885-3.477-.183-7.093 1.926-9.92 6.081-8.151 17.874-18.591 29.278-28.687 8.743-7.739 17.784-15.742 22.267-21.064 10.757-12.771 21.61-25.182 32.257-36.89 9.252-10.174 18.678-18.317 27.794-26.193 6.131-5.297 12.471-10.774 18.711-16.836 5.688-5.525 12.57-10.867 19.226-16.034 5.064-3.931 9.848-7.645 13.875-11.237 10.527-9.391 23.585-19.78 35.107-28.947l3.925-3.124c3.378-2.692 5.671-6.083 8.325-10.009 3.358-4.967 7.165-10.597 13.67-15.293 2.114-1.525 4.899-3.552 8.081-5.867 12.162-8.852 30.542-22.227 39.208-27.805 11.521-7.417 19.32-14.482 26.863-21.315 11.44-10.364 22.246-20.154 42.973-29.12 3.253-1.408 7.009-.987 9.871 1.104 23.362 17.076 49.43 37.374 74.638 57.005 25.093 19.539 51.041 39.745 74.159 56.643 10.727 7.84 20.377 12.302 29.71 16.616 17.472 8.077 33.976 15.706 47.502 41.948 2.481 4.813 1.172 9.776-3.89 14.75-1.769 1.737-4.186 3.819-7.246 6.455-7.345 6.326-18.446 15.886-29.519 28.563-65.991 75.55-205.504 231.481-206.906 233.048-1.95 2.18-4.683 3.332-7.457 3.332zm-209.442-109.203c15.064 7.963 31.364 12.192 48.621 16.67 12.556 3.258 25.539 6.627 38.204 11.585 42.381 16.591 100.455 47.513 120.458 58.367 26.185-29.285 142.869-159.879 201.459-226.956 12.008-13.747 23.756-23.865 31.53-30.561 1.038-.894 2.127-1.831 3.129-2.707-9.565-15.456-20.406-20.468-34.836-27.138-9.744-4.505-20.789-9.61-33.12-18.624-23.365-17.077-49.434-37.378-74.645-57.01-23.397-18.219-47.538-37.018-69.434-53.173-14.424 7-22.793 14.583-32.333 23.226-7.763 7.033-16.561 15.004-29.465 23.311-8.185 5.27-26.287 18.442-38.265 27.159-3.207 2.333-6.013 4.376-8.143 5.913-3.629 2.62-6.029 6.169-8.807 10.278-3.122 4.617-6.66 9.85-12.429 14.447l-3.938 3.135c-11.315 9.002-24.139 19.205-34.245 28.22-4.538 4.049-9.818 8.147-14.925 12.112-6.225 4.832-12.662 9.829-17.555 14.582-6.658 6.468-13.223 12.139-19.571 17.624-9.067 7.833-17.631 15.231-26.072 24.514-10.478 11.522-21.163 23.742-31.758 36.319-5.426 6.442-14.597 14.561-24.307 23.155-7.59 6.719-15.938 14.109-21.694 20.127 12.569 8.381 46.314 23.917 63.805 31.97 11.991 5.521 22.347 10.288 28.336 13.454z"/><path d="m420.111 328.043c-2.892-12.795-12.677-12.282-8.749-24.798 4.57-14.562 24.288-38.824 36.736-47.656 67.468-47.868 144.245-84.064 225.511-99.526 34.193-6.506 69.357 2.499 69.357 2.499 3.818-.815-1.286 27.874-1.286 27.874s27.046 78.282 26.16 90.214c-.081 1.094-47.301-2.829-91.41 2.307-30.873 3.595-57.922 22.682-85.398 37.212-27.475 14.53-53.857 31.128-78.827 49.636-12.681 9.399-24.999 19.289-36.909 29.648-8.35 7.263-22.641 26.545-33.155 27.401-11.129-29.51-15.057-63.956-22.03-94.811z" fill="#fff"/><path d="m442.137 432.855c-4.131 0-7.875-2.554-9.353-6.472-7.944-21.064-12.302-44.229-16.517-66.632-1.934-10.281-3.761-19.994-5.91-29.504-.707-3.125-2.01-4.742-3.815-6.981-3.424-4.247-8.598-10.666-4.722-23.016 5.389-17.167 26.557-42.932 40.491-52.817 72.499-51.438 151.834-86.43 229.428-101.193 33.125-6.3 66.456.906 72.711 2.393 2.257.286 4.395 1.292 6.082 2.921 3.975 3.842 4.674 9.256 2.994 23.172-.513 4.247-1.146 8.329-1.562 10.865 8.715 25.341 26.754 79.579 25.847 91.801-.242 3.267-2.64 8.925-10.091 9.404-.728.048-1.611.065-2.867.058-1.992-.013-4.769-.088-8.283-.184-15.757-.429-48.542-1.322-78.985 2.222-22.266 2.593-42.552 14.078-64.03 26.237-5.827 3.298-11.851 6.709-17.85 9.881-27.019 14.289-53.109 30.718-77.547 48.83-12.46 9.235-24.674 19.046-36.301 29.159-1.989 1.73-4.711 4.624-7.592 7.688-9.349 9.941-19.945 21.209-31.313 22.135-.273.022-.546.033-.816.033zm-21.692-124.376c.217.435 1.051 1.471 1.668 2.236 2.398 2.975 6.022 7.471 7.751 15.124 2.229 9.864 4.175 20.209 6.058 30.215 3.334 17.721 6.762 35.939 11.946 52.653 4.269-3.684 9.156-8.881 11.828-11.722 3.234-3.44 6.29-6.689 9.036-9.077 12.018-10.453 24.64-20.593 37.517-30.138 25.247-18.711 52.199-35.683 80.107-50.441 5.745-3.038 11.643-6.377 17.346-9.605 22.264-12.604 45.286-25.638 71.57-28.698 31.256-3.641 64.327-2.825 80.891-2.375-3.965-16.306-14.235-48.872-23.936-76.948-.557-1.611-.692-3.338-.394-5.017 1.127-6.344 2.02-13.152 2.385-17.757-11.138-2.088-35.409-5.479-58.741-1.041-74.794 14.23-151.419 48.068-221.594 97.856-10.8 7.663-29.083 30.075-32.981 42.496-.437 1.39-.461 2.055-.458 2.238zm324.607-140.136s-.01.002-.015.003c.005 0 .01-.002.015-.003z"/><path d="m160.516 576.518c-2.869 0-5.715-1.228-7.693-3.604-11.298-13.583-7.938-33.617 1.222-46.389 7.044-9.82 16.524-16.358 25.692-22.682 1.568-1.082 3.133-2.161 4.679-3.254 8.2-5.799 16.975-12.971 19.882-22.197 2.397-7.607.978-16.895-.526-26.726-2.182-14.271-4.655-30.447 5.226-44.295 4.851-6.798 11.569-11.104 17.496-14.902 5.128-3.287 9.973-6.392 12.404-10.369 2.717-4.443 3.013-10.887 3.326-17.708.134-2.916.272-5.932.6-8.987 2.638-24.569 17.95-46.811 39.961-58.043 4.92-2.512 10.943-.558 13.453 4.361 2.51 4.92.558 10.942-4.362 13.453-15.821 8.074-27.27 24.703-29.166 42.363-.263 2.448-.381 5.033-.507 7.77-.396 8.623-.845 18.397-6.242 27.225-4.831 7.9-12.186 12.614-18.675 16.773-4.833 3.098-9.397 6.023-12.007 9.682-5.164 7.236-3.575 17.625-1.736 29.654 1.699 11.117 3.626 23.716-.169 35.761-4.72 14.977-17.127 25.243-27.409 32.515-1.609 1.138-3.239 2.262-4.872 3.389-8.116 5.598-15.781 10.885-20.795 17.874-4.631 6.458-6.682 16.431-2.097 21.941 3.532 4.246 2.953 10.552-1.293 14.083-1.868 1.555-4.136 2.313-6.39 2.313z"/><path d="m139.132 589.184c5.962-10.208 14.789-19.952 23.791-18.038 6.638 1.412 11.233 8.792 14.787 16.167 7.926 16.45 17.301 71.777 12.76 77.334-3.801 4.65-65.218 3.645-68.801-3.528-7.933-15.884 8.568-59.019 17.464-71.935z" fill="#f9e3ae"/><path d="m165.221 677.482c-9.227 0-18.899-.486-26.868-1.374-15.729-1.753-22.676-4.604-25.631-10.521-10.995-22.013 9.799-69.595 17.951-81.747 10.055-17.066 22.232-25.047 34.33-22.476 11.165 2.375 17.47 12.795 21.715 21.607 4.88 10.13 9.352 30.118 11.91 45.447 5.826 34.918 1.918 39.699-.417 42.556-3.104 3.799-8.265 5.947-26.613 6.426-2.083.054-4.219.081-6.378.081zm-35.338-22.996c9.395 2.81 39.722 3.769 51.829 2.338-.132-13.594-6.657-51.98-13.012-65.171-4.626-9.603-7.358-10.62-7.859-10.727-1.657-.351-7.172 3.194-13.074 13.3-.125.215-.259.425-.399.629-8.779 12.747-20.225 47.17-17.485 59.631zm.732 2.165h.01zm8.517-67.467h.01z"/><path d="m108.301 724.734c-.213 0-.427-.007-.643-.021-5.512-.349-9.697-5.101-9.347-10.612 1.253-19.759 8.72-39.182 21.027-54.692 3.432-4.326 9.722-5.052 14.049-1.618 4.326 3.434 5.051 9.724 1.618 14.05-9.794 12.344-15.737 27.802-16.734 43.526-.336 5.296-4.737 9.367-9.97 9.367z"/><path d="m135.186 723.506c-.886 0-1.786-.119-2.682-.367-5.321-1.479-8.437-6.99-6.959-12.312 3.572-12.86 4.605-26.66 2.99-39.908-.669-5.482 3.233-10.469 8.716-11.138 5.477-.662 10.469 3.233 11.137 8.716 1.931 15.829.696 32.317-3.572 47.682-1.229 4.427-5.25 7.327-9.63 7.327z"/><path d="m160.137 720.632c-5.371 0-9.811-4.263-9.989-9.671-.447-13.582-3.743-27.26-9.532-39.555-2.353-4.997-.209-10.955 4.788-13.308 4.997-2.351 10.955-.208 13.307 4.788 6.939 14.738 10.89 31.135 11.426 47.416.182 5.52-4.146 10.142-9.666 10.323-.112.004-.224.006-.335.006z"/><path d="m191.347 728.228c-5.02 0-9.347-3.771-9.924-8.877-1.9-16.803-9.455-32.717-21.272-44.812-3.859-3.95-3.786-10.281.164-14.141 3.951-3.858 10.282-3.787 14.142.164 14.911 15.261 24.442 35.341 26.839 56.54.621 5.488-3.325 10.44-8.813 11.061-.381.043-.761.064-1.136.064z"/><path d="m218.61 717.341c-2.937 0-5.847-1.287-7.822-3.762l-31.777-39.806c-3.446-4.316-2.74-10.608 1.576-14.055 4.316-3.445 10.608-2.739 14.054 1.576l31.778 39.808c3.445 4.315 2.74 10.608-1.577 14.054-1.842 1.471-4.045 2.185-6.232 2.185z"/><path d="m91.937 694.275c-2.442 0-4.89-.889-6.817-2.686-4.04-3.767-4.261-10.095-.495-14.134l23.704-25.426c3.766-4.039 10.094-4.26 14.133-.495 4.04 3.766 4.262 10.094.496 14.134l-23.705 25.426c-1.969 2.112-4.64 3.181-7.316 3.181z"/><ellipse cx="896.33" cy="345.72" rx="73.494" ry="65.909"/><circle cx="699.436" cy="561.562" fill="#fff" r="281.751"/><path d="m712.594 853.011c-5.312 0-9.735-4.18-9.981-9.54-.254-5.518 4.013-10.195 9.53-10.449 145.259-6.682 259.045-125.921 259.045-271.46 0-149.844-121.907-271.751-271.751-271.751s-271.751 121.907-271.751 271.751c0 125.23 84.774 233.702 206.155 263.784 5.361 1.328 8.629 6.751 7.301 12.111s-6.753 8.628-12.112 7.301c-62.121-15.395-118.354-51.65-158.339-102.087-20.001-25.229-35.577-53.342-46.294-83.557-11.088-31.262-16.711-64.084-16.711-97.553 0-77.93 30.348-151.194 85.452-206.299s128.37-85.452 206.299-85.452 151.195 30.348 206.299 85.452 85.452 128.369 85.452 206.299c0 75.556-28.77 147.209-81.01 201.761-52.075 54.378-122.079 86.227-197.116 89.678-.156.007-.313.011-.467.011z"/><path d="m872.924 526.044c13.566-2.359 45.555-14.896 72.993-29.989 25.207-13.866 46.064-30.279 56.355-34.484 19.467-7.954 35.008 10.288 36.912 23.099s-.742 35.466-40.645 67.403c-27.928 22.353-66.769 37.345-98.456 48.096" fill="#fff"/><path d="m900.083 610.172c-4.167 0-8.056-2.625-9.469-6.79-1.774-5.229 1.027-10.908 6.257-12.683 30.23-10.257 68.395-24.804 95.42-46.434 27.065-21.663 39.515-41.219 37.002-58.126-.683-4.593-4.811-11.292-10.535-14.553-4.094-2.33-8.249-2.577-12.704-.76-4.157 1.699-11.683 6.66-20.396 12.404-9.697 6.392-21.764 14.348-34.922 21.585-26.599 14.633-60.026 28.284-76.1 31.08-5.44.942-10.619-2.697-11.565-8.139s2.697-10.62 8.139-11.566c12.255-2.131 43.261-14.252 69.887-28.898 12.457-6.853 23.665-14.241 33.554-20.76 9.985-6.582 17.872-11.781 23.839-14.22 10.078-4.116 20.792-3.445 30.167 1.895 10.527 5.995 18.733 17.646 20.42 28.991 3.634 24.452-11.267 50.252-44.287 76.682-29.457 23.575-69.712 38.976-101.492 49.758-1.065.361-2.148.533-3.214.533z"/><path d="m832.165 719.245c-35.058 0-56.271-11.238-68.326-21.483-14.468-12.295-20.271-26.712-20.876-36.105-1.693-26.257 17.756-35.89 24.147-39.056 15.033-7.445 30.058-8.227 41.223-2.148 2.104 1.146 3.994 2.45 5.821 3.711 6.63 4.575 14.17 9.733 37.127 9.617 11.549-.071 18.048-3.305 24.333-6.432 5.715-2.844 11.634-5.772 19.595-5.627 16.193.318 30.002 13.437 30.782 29.241.852 17.273-5.815 33.309-18.775 45.153-13.322 12.177-33.136 19.864-57.298 22.23-6.276.615-12.192.898-17.753.898zm-40.614-82.848c-5.188 0-10.967 1.85-15.564 4.126-10.134 5.02-13.675 10.398-13.065 19.847.245 3.794 3.458 13.306 13.869 22.152 11.019 9.365 32.314 19.729 71.178 15.921 19.827-1.942 35.649-7.852 45.755-17.089 8.603-7.862 12.854-18.03 12.292-29.404-.278-5.644-6.249-10.134-11.2-10.231-2.929-.057-5.542 1.174-10.292 3.537-7.146 3.556-16.936 8.425-33.119 8.525-.325.002-.651.003-.972.003-28.568 0-40.025-7.906-47.637-13.158-1.53-1.056-2.851-1.967-4.029-2.608-2.097-1.142-4.581-1.62-7.216-1.62z"/><path d="m705.749 536.169c-.574 0-1.156-.05-1.742-.152-5.439-.956-9.075-6.14-8.119-11.579 4.139-23.566 26.276-42.431 53.834-45.874 28.781-3.589 55.963 10.722 64.626 34.047 1.923 5.177-.715 10.933-5.893 12.855-5.179 1.924-10.933-.715-12.856-5.893-5.468-14.722-23.722-23.622-43.398-21.164-18.624 2.327-34.023 14.729-36.615 29.487-.853 4.854-5.073 8.271-9.837 8.272z"/><path d="m715.329 513.068c-2.562 0-5.123-.978-7.076-2.934l-21.874-21.904c-3.902-3.908-3.898-10.24.01-14.143 3.908-3.902 10.239-3.898 14.142.01l21.874 21.904c3.902 3.908 3.898 10.24-.01 14.143-1.952 1.949-4.509 2.924-7.066 2.924z"/><path d="m794.416 504.612c-1.991 0-4.002-.594-5.753-1.828-4.514-3.183-5.593-9.422-2.411-13.936l17.838-25.3c3.183-4.513 9.422-5.592 13.935-2.41 4.514 3.183 5.593 9.422 2.411 13.936l-17.838 25.3c-1.948 2.762-5.041 4.238-8.182 4.238z"/><path d="m768.141 496.21c-.488 0-.981-.035-1.479-.109-5.463-.81-9.236-5.895-8.426-11.357l4.538-30.621c.81-5.464 5.898-9.243 11.358-8.426 5.463.81 9.236 5.895 8.426 11.357l-4.538 30.621c-.736 4.966-5.005 8.535-9.879 8.535z"/><path d="m738.881 500.634c-4.156 0-8.038-2.611-9.46-6.764l-10.027-29.286c-1.789-5.226.997-10.911 6.222-12.7 5.223-1.788 10.911.996 12.7 6.222l10.027 29.286c1.789 5.226-.997 10.911-6.222 12.7-1.073.367-2.166.542-3.24.542z"/><path d="m875.051 503.568c-.574 0-1.156-.05-1.741-.152-5.44-.956-9.075-6.14-8.12-11.579 3.404-19.384 21.507-34.886 44.023-37.699 23.524-2.94 45.779 8.858 52.91 28.058 1.923 5.177-.715 10.933-5.893 12.855-5.18 1.924-10.933-.715-12.856-5.893-3.872-10.424-17.49-16.952-31.682-15.175-13.663 1.707-24.935 10.67-26.804 21.313-.853 4.854-5.073 8.271-9.837 8.272z"/><path d="m882.55 485.479c-2.562 0-5.123-.979-7.076-2.934l-17.129-17.153c-3.902-3.908-3.898-10.24.01-14.143 3.908-3.902 10.239-3.896 14.142.01l17.129 17.153c3.902 3.908 3.898 10.24-.01 14.143-1.952 1.949-4.509 2.924-7.066 2.924z"/><path d="m933.39 475.78c-1.574 0-3.17-.372-4.66-1.158-4.884-2.578-6.753-8.628-4.175-13.512l11.389-21.574c2.578-4.885 8.626-6.755 13.512-4.176 4.884 2.578 6.753 8.628 4.175 13.512l-11.389 21.574c-1.792 3.396-5.262 5.334-8.852 5.334z"/><path d="m905.517 472.312c-4.156 0-8.038-2.611-9.46-6.764l-7.852-22.934c-1.789-5.226.997-10.911 6.222-12.7 5.223-1.786 10.911.996 12.7 6.222l7.852 22.934c1.789 5.226-.997 10.911-6.222 12.7-1.073.367-2.166.542-3.24.542z"/><path d="m690.811 441.652c-2.991 0-5.95-1.335-7.92-3.886-3.377-4.369-2.572-10.649 1.798-14.027 26.372-20.379 62.475-26.737 94.221-16.592 5.261 1.681 8.163 7.309 6.481 12.569-1.681 5.261-7.311 8.159-12.569 6.481-25.573-8.173-54.659-3.05-75.904 13.367-1.82 1.406-3.973 2.087-6.107 2.087z"/><path d="m935.685 421.631c-1.64 0-3.303-.404-4.839-1.256-18.235-10.109-40.002-13.24-59.718-8.596-5.377 1.267-10.76-2.064-12.027-7.439-1.267-5.376 2.064-10.761 7.44-12.027 24.499-5.771 51.471-1.918 74.001 10.57 4.831 2.678 6.576 8.764 3.898 13.595-1.826 3.294-5.238 5.153-8.755 5.153z"/><path d="m720.538 279.325c20.653 22.267 81.695 45.981 109.858 34.614 8.93-3.604 17.189-8.921 26.475-11.471 9.286-2.549 20.443-1.663 26.84 5.535 6.829 7.686 5.868 19.272 5.034 29.52s-.349 22.279 7.924 28.383c5.698 4.204 13.453 4.18 20.444 3.055s13.988-3.174 21.025-2.391 14.339 5.46 15.215 12.486c.734 5.881-3.094 11.272-4.477 17.035-3.005 12.52 6.519 25.466 18.505 30.169s25.513 2.951 37.978-.274c-6.946-2.339-10.59-10.326-10.559-17.656s2.859-14.308 5.01-21.315 3.624-14.705 1.006-21.551c-7.038-18.41-37.683-18.941-43.312-37.829-2.797-9.386 2.134-19.122 6.481-27.898s8.23-19.364 3.608-27.998c-7.189-13.43-27.785-10.922-39.768-20.328-10.784-8.465-12.38-24.801-22.566-33.977-7.532-6.786-18.861-8.376-28.583-5.501s-17.909 9.713-24.034 17.792c-5.625 7.421-9.887 16.132-17.264 21.815-9.324 7.184-22.25 8.223-33.706 5.518s-6.341-50.236-46.318-35.329c-24.092 8.983-34.818 57.594-34.818 57.594z" fill="#fff"/><path d="m983.882 439.147c-6.576 0-13.459-.95-20.154-3.577-15.549-6.1-28.993-23.407-24.576-41.812.656-2.733 1.638-5.195 2.504-7.367.949-2.38 1.931-4.842 1.774-6.097-.156-1.255-2.912-3.397-6.397-3.785-3.797-.419-8.205.429-12.871 1.331-1.764.341-3.589.693-5.461.994-11.796 1.897-20.945.301-27.968-4.881-14.136-10.43-12.494-30.609-11.954-37.241.707-8.687 1.432-17.594-2.543-22.067-3.515-3.955-10.929-4.123-16.717-2.533-4.804 1.318-9.571 3.662-14.618 6.143-3.437 1.688-6.99 3.436-10.761 4.958-20.541 8.289-49.364.737-64.718-4.504-23.459-8.006-45-20.492-56.214-32.584-2.23-2.404-3.14-5.751-2.433-8.954 1.218-5.52 12.718-54.23 41.089-64.81 11.828-4.41 22.078-4.655 30.464-.726 12.671 5.938 17.336 19.23 20.743 28.938.792 2.257 1.912 5.449 2.767 7.151 9.144 1.735 17.8.242 23.441-4.104 3.845-2.962 6.931-7.586 10.198-12.481 1.631-2.443 3.318-4.971 5.2-7.453 8.127-10.722 18.213-18.101 29.167-21.341 13.75-4.064 28.352-1.131 38.111 7.66 6.371 5.738 9.915 13.131 13.042 19.652 2.697 5.624 5.245 10.938 9.005 13.889 3.486 2.736 8.888 4.255 14.607 5.863 9.638 2.71 21.631 6.082 27.803 17.612 6.956 12.992 1.354 27.428-3.464 37.155l-.184.371c-3.593 7.251-7.309 14.749-5.674 20.233 1.657 5.561 8.625 9.172 16.692 13.354 10.11 5.24 21.568 11.181 26.377 23.759 3.847 10.063 1.6 20.281-.788 28.058-.427 1.392-.879 2.781-1.333 4.174-1.655 5.083-3.219 9.884-3.237 14.249-.016 3.721 1.702 7.446 3.75 8.136 4.194 1.412 6.961 5.413 6.803 9.835-.158 4.423-3.205 8.215-7.488 9.323-6.56 1.698-14.982 3.479-23.983 3.479zm-48.972-82.749c1.424 0 2.869.071 4.334.234 10.779 1.199 22.495 8.862 24.032 21.188.792 6.359-1.334 11.693-3.043 15.979-.676 1.695-1.314 3.296-1.634 4.628-1.764 7.351 5.137 15.663 12.434 18.525 4.426 1.737 9.524 2.448 15.543 2.114-1.215-3.551-1.791-7.268-1.776-10.776.032-7.496 2.257-14.329 4.22-20.357.418-1.284.836-2.566 1.23-3.85 1.334-4.346 2.912-10.633 1.225-15.047-2.09-5.468-9.284-9.196-16.9-13.144-10.581-5.484-22.573-11.701-26.655-25.399-3.881-13.024 2.108-25.111 6.92-34.824l.183-.368c4.475-9.035 5.703-15.198 3.753-18.84-2.008-3.751-7.227-5.448-15.583-7.798-7.001-1.968-14.938-4.199-21.542-9.384-7.429-5.831-11.287-13.876-14.69-20.974-2.552-5.322-4.962-10.348-8.395-13.44-4.557-4.105-12.035-5.416-19.053-3.341-8.634 2.554-15.044 9.155-18.901 14.244-1.519 2.004-2.968 4.175-4.503 6.475-3.833 5.743-8.178 12.253-14.626 17.221-10.905 8.402-26.251 11.073-42.107 7.329-9.052-2.138-12.167-11.014-15.179-19.598-2.479-7.066-5.29-15.075-10.356-17.449-4.16-1.951-10.447-.339-14.99 1.355-12.402 4.624-22.589 28.171-27.217 45.047 9.881 8.627 26.543 17.591 44.248 23.633 21.332 7.28 40.312 9.108 50.772 4.885 3.091-1.248 6.168-2.76 9.425-4.36 5.661-2.782 11.514-5.659 18.145-7.48 11.419-3.13 27.124-2.536 36.963 8.536 9.651 10.863 8.476 25.3 7.532 36.9-.854 10.497.456 17.066 3.888 19.599 2.408 1.776 6.874 2.202 12.917 1.229 1.563-.251 3.156-.559 4.842-.885 4.438-.857 9.341-1.806 14.544-1.806z"/><path d="m683.966 348.627c-2.094-3.47-23.068-61.052-37.71-74.421-18.089-16.516-41.359-14.943-66.85-.098-29.479 17.167-7.855 38.398-35.921 45.748-29.054 7.609-44.185-22.161-64.146 8.307-7.762 11.847 8.728 62.922-33.372 68.936-13.301 1.9-33.041-29.597-45.663-34.205s-27.326-5.321-39.048 1.247c-11.9 6.668-18.989 19.871-21.513 33.277s-1.1 27.203.332 40.769c-16.604-4.015-34.871-4.087-49.974 3.895-15.103 7.981-25.92 25.361-22.63 42.124 3.261 16.616 18.495 28.241 24.779 43.965 7.844 19.629-24.953 55.621-25.371 76.755-.508 25.717 34.795 36.44 44.381 60.309 4.291 10.684 28.173 3.182 32.464 13.866 9.784 24.36-24.873 70.663-5.346 88.209 6.401 5.752 39.191 7.755 44.428 14.584 9.114 11.885 11.399 29.038 23.593 37.735 10.546 7.521 43.327-11.292 56.273-10.887 28.975.905 11.36 41.432 72.171 33.413 15.92-2.099 53.406-14.804 68.119-21.237 14.713-6.432 26.992-23.374 20.637-38.121l-63.687-291.065 124.053-143.105z" fill="#fff"/><path d="m520.031 853.221c-27.217 0-37.197-11.706-45.528-24.872-4.527-7.155-6.241-9.427-12.142-9.611-3.296-.122-11.821 2.858-18.661 5.236-16.74 5.823-32.554 11.323-43.106 3.797-9.483-6.763-14.077-16.856-18.131-25.762-2.269-4.984-4.418-9.706-7.184-13.486-2.836-1.66-12.429-3.71-18.248-4.953-12.625-2.697-20.602-4.566-25.336-8.82-15.393-13.832-8.523-36.528-2.463-56.553 3.793-12.533 8.077-26.688 5.477-34.643-1.673-.696-5.785-1.16-8.339-1.449-8.448-.954-20.018-2.261-24.388-13.142-3.275-8.155-11.078-14.975-19.338-22.194-12.253-10.709-26.142-22.847-25.762-42.04.228-11.532 6.925-24.298 14.016-37.813 6.592-12.565 14.796-28.203 12.066-35.034-2.258-5.65-6.167-11.015-10.305-16.695-6.257-8.587-12.727-17.467-15.001-29.056-3.937-20.063 7.742-42.307 27.771-52.892 14.526-7.676 30.204-8.625 43.449-7.167-.743-9.858-.893-20.252 1.039-30.505 3.388-17.995 13.03-32.629 26.452-40.149 13.192-7.392 30.456-8.092 47.366-1.917 7.462 2.725 14.767 10.188 22.501 18.09 5.155 5.267 14.711 15.03 18.512 15.581 19.563-2.892 21.385-17.937 21.927-40.531.242-10.086.433-18.053 4.301-23.957 16.067-24.524 33.332-19.016 45.938-14.99 7.775 2.482 15.121 4.825 24.039 2.489 8.164-2.138 8.6-4.179 10.219-11.77 1.886-8.837 4.735-22.191 23.203-32.946 38.93-22.67 64.244-11.775 78.625 1.355 11.582 10.574 24.408 39.579 36.543 69.349 1.336 3.276 2.716 6.662 3.16 7.59 2.042 3.663 1.583 8.229-1.18 11.416l-120.768 139.315 62.43 285.319c7.783 19.863-7.064 41.896-26.215 50.269-14.227 6.22-52.877 19.622-70.817 21.988-5.967.787-11.315 1.152-16.121 1.152zm-57.768-54.485c.243 0 .484.003.723.011 16.786.524 23.509 11.149 28.418 18.907 6.312 9.976 11.764 18.591 42.133 14.586 14.416-1.901 50.438-13.935 65.421-20.485 10.419-4.555 19.245-16.215 15.459-25.001-.253-.586-.449-1.195-.585-1.819l-63.688-291.065c-.674-3.083.146-6.304 2.213-8.688l119.934-138.354c-.37-.903-.79-1.933-1.269-3.107-5.924-14.533-21.662-53.139-31.508-62.129-13.911-12.703-31.927-12.322-55.075 1.158-10.819 6.301-12.094 12.274-13.708 19.837-1.953 9.15-4.627 21.683-24.712 26.943-14.538 3.807-25.987.153-35.188-2.784-11.777-3.759-15.363-4.904-23.043 6.771-.84 1.955-1.001 8.679-1.12 13.604-.246 10.282-.553 23.078-5.166 34.372-5.939 14.539-17.419 23.121-34.122 25.507-.876.125-1.749.186-2.614.186-11.68.002-22.416-10.97-32.825-21.604-5.008-5.116-11.866-12.123-15.067-13.292-11.429-4.174-22.629-3.961-30.73.577-8.122 4.551-14.317 14.421-16.574 26.403-2.273 12.073-.889 25.187.45 37.868.341 3.233-.91 6.431-3.356 8.572-2.445 2.142-5.78 2.963-8.939 2.197-16.477-3.984-31.73-2.914-42.952 3.017-12.212 6.453-19.731 19.934-17.489 31.356 1.421 7.242 6.336 13.988 11.54 21.13 4.682 6.427 9.524 13.072 12.712 21.051 6.149 15.387-3.549 33.871-12.928 51.748-5.436 10.359-11.596 22.101-11.73 28.915-.182 9.209 7.029 16.188 18.928 26.587 9.039 7.899 19.26 16.833 24.428 29.055 1.645.706 5.805 1.176 8.381 1.467 8.448.954 20.019 2.261 24.39 13.144 5.75 14.317.473 31.753-4.63 48.614-4.284 14.153-9.132 30.172-3.515 35.692 2.376 1.343 10.761 3.135 16.351 4.329 15.189 3.245 24.742 5.552 29.532 11.797 4.353 5.677 7.185 11.898 9.924 17.915 3.392 7.452 6.329 13.905 11.294 17.586 4.02 1.13 17.749-3.643 25.169-6.225 9.769-3.397 18.251-6.348 25.133-6.348zm-50.46 12.523s0 0 0 0zm280.725-467.799c.044.074.088.148.13.223-.049-.088-.093-.162-.13-.223z"/><path d="m469.099 679.852c-8.707 0-17.4-3.514-23.374-10.108-3.155-3.483-5.246-7.367-7.09-10.793-1.824-3.388-3.398-6.313-5.337-7.733-2.02-1.479-5.548-1.836-9.209-.934-4.542 1.12-9.258 3.903-13.819 6.595-2.146 1.266-4.687 1.686-7.124 1.177-12.955-2.701-23.061-15.081-25.747-31.539-.843-5.168-1.032-10.188-1.214-15.044-.206-5.492-.4-10.68-1.533-15.375-1.452-6.021-5.992-12.458-10.827-12.458-.035 0-.069 0-.104 0-3.514.066-7.878 3.135-12.498 6.382-7.604 5.347-17.067 11.999-29.063 8.687-11.948-3.3-17.583-14.871-20.611-21.088-3.767-7.735-6.703-15.733-9.542-23.469-2.79-7.601-5.425-14.78-8.747-21.602-2.418-4.966-.354-10.951 4.612-13.369 4.964-2.418 10.951-.354 13.369 4.611 3.767 7.735 6.703 15.733 9.542 23.469 2.79 7.601 5.425 14.78 8.747 21.602 1.529 3.14 4.71 9.672 7.956 10.568 2.692.747 6.592-1.804 12.236-5.771 6.232-4.381 13.988-9.834 23.619-10.017 16.445-.332 27.476 14.172 30.754 27.764 1.601 6.639 1.843 13.082 2.076 19.314.167 4.439.324 8.633.967 12.573.862 5.281 3.396 11.228 7.206 13.896 4.459-2.515 9.391-4.953 14.957-6.325 9.536-2.353 18.946-.815 25.815 4.217 5.587 4.092 8.532 9.562 11.13 14.388 1.43 2.657 2.781 5.167 4.302 6.846 3.271 3.611 9.613 4.623 13.846 2.216 4.801-2.733 10.906-1.057 13.638 3.744 2.732 4.8 1.056 10.905-3.745 13.637-4.669 2.658-9.931 3.939-15.188 3.939z"/><path d="m446.454 512.547c-4.136 0-8.005-2.587-9.443-6.713-2.974-8.537-6.049-17.365-11.256-23.961-4.724-5.983-11.358-9.5-16.903-8.967-4.375.424-9.071 3.214-14.043 6.167-6.038 3.586-12.882 7.65-21.2 8.772-10.502 1.413-21.546-2.49-28.821-10.195-6.766-7.165-17.018-33.232-14.847-44.436 1.05-5.423 6.293-8.975 11.719-7.916 5.371 1.04 8.899 6.199 7.944 11.566-.358 5.213 6.568 23.532 9.738 27.067 2.875 3.044 7.434 4.656 11.594 4.093 4.28-.577 8.836-3.283 13.66-6.148 6.332-3.761 13.508-8.022 22.328-8.877 12.516-1.218 25.427 4.949 34.53 16.48 7.29 9.234 11.092 20.146 14.445 29.773 1.817 5.216-.938 10.917-6.154 12.733-1.088.379-2.199.56-3.29.56zm-96.869-75.582-.01.053c.003-.017.007-.034.01-.053z"/><path d="m678.18 334.802c12.798 29.987 17.17 55.316-5.399 75.092-22.361 19.593-59.704 24.036-70.425 51.767-8.577 22.187 5.621 46.216 20.036 65.137s30.638 40.563 26.293 63.95c-5.348 28.784-40.419 47.878-38.549 77.095 1.091 17.056 14.818 30.321 28.198 40.954s28.198 21.626 33.17 37.977c4.178 13.743.339 28.923-7.038 41.248s-17.995 22.322-28.473 32.148c14.987 7.554-4.247 39.026-2.121 55.675 2.125 16.648 25.548 17.99 12.94 29.067-6.486 9.008-27.363 53.615 9.267 37.485 1.666 18.779-70.108 44.313-83.969 9.364-6.95-17.525 14.986-33.824 3.587-48.841-11.398-15.017-19.814-5.382-21.687-24.142-1.665-16.681 12.753-41.925 2.285-55.02-8.14-10.183-21.7-15.701-27.668-27.292-11.913-23.135 14.064-49.628 10.669-75.429-2.204-16.75-16.117-29.093-28.545-40.537s-25.153-25.862-23.774-42.7c1.335-16.302 15.454-28.512 21.009-43.897 9.39-26.005-7.064-53.587-10.669-80.999-4.074-30.982 9.98-63.689 35.26-82.058" fill="#fff"/><path d="m603.643 979.158c-19.796 0-34.746-8.375-40.828-23.712-4.741-11.953-.493-22.713 2.92-31.358 3.572-9.049 4.268-12.132 1.998-15.123-3.311-4.361-5.725-5.432-8.782-6.787-6.977-3.093-13.365-7.134-14.89-22.407-.812-8.137 1.208-16.923 3.163-25.42 2.171-9.438 4.631-20.135 1.262-24.35-2.741-3.429-6.608-6.463-10.702-9.675-6.384-5.009-13.619-10.686-18.046-19.282-8.651-16.801-2.329-33.981 3.25-49.14 3.896-10.587 7.576-20.586 6.395-29.563-1.665-12.653-13.166-23.23-24.288-33.459l-1.116-1.026c-13.479-12.411-28.725-29.409-26.967-50.873.995-12.145 7.344-22.035 12.946-30.762 3.467-5.401 6.742-10.504 8.624-15.715 5.142-14.24.52-30.289-4.374-47.279-2.703-9.385-5.498-19.088-6.803-29.02-2.234-16.984.308-34.624 7.349-51.011s18.089-30.371 31.948-40.44c4.468-3.247 10.722-2.255 13.968 2.212 3.247 4.468 2.256 10.722-2.212 13.968-22.264 16.177-34.812 45.378-31.224 72.664 1.11 8.444 3.579 17.017 6.193 26.091 5.561 19.307 11.31 39.27 3.967 59.607-2.646 7.328-6.692 13.632-10.605 19.727-4.76 7.415-9.255 14.419-9.843 21.591-1.052 12.838 10.446 25.195 20.581 34.527l1.107 1.019c13.108 12.056 27.967 25.72 30.578 45.57 1.825 13.866-3.105 27.261-7.454 39.079-4.757 12.926-8.866 24.09-4.238 33.076 2.427 4.714 7.374 8.595 12.61 12.703 4.812 3.775 9.788 7.68 13.979 12.922 9.405 11.766 5.794 27.468 2.607 41.321-1.592 6.923-3.238 14.081-2.752 18.95.339 3.399.849 4.74 1.035 5.136.417.246 1.353.661 2.059.974 4.055 1.798 10.182 4.515 16.607 12.979 9.419 12.408 4.365 25.211.674 34.559-2.958 7.494-4.632 12.354-2.932 16.642 3.821 9.634 15.163 11.304 23.991 11.024 9.999-.326 19.511-3.128 26.838-6.454-1.143-.838-2.186-1.84-3.129-3.005-12.493-15.423 7.225-46.933 9.401-50.283-.086-.07-.17-.14-.252-.206-4.799-3.936-12.831-10.523-14.301-22.039-1.07-8.38 1.577-18.092 4.137-27.484 1.438-5.274 4.775-17.52 3.387-20.531-2.864-1.483-4.879-4.28-5.34-7.476-.466-3.232.635-6.512 3.017-8.745 9.841-9.228 20.018-18.77 26.732-29.989 6.805-11.368 9.01-23.47 6.051-33.202-3.784-12.444-15.865-22.007-27.548-31.254l-2.276-1.805c-14.164-11.255-30.596-26.9-31.956-48.144-1.262-19.721 10.668-35.162 21.194-48.786 7.979-10.328 15.516-20.083 17.503-30.774 3.586-19.307-11.291-38.834-24.417-56.063-14.332-18.813-32.145-47.033-21.409-74.803 8.031-20.774 27.053-30.121 45.45-39.159 10.366-5.093 20.157-9.903 27.711-16.523 15.892-13.925 16.649-31.175 2.792-63.646-2.168-5.079.192-10.954 5.272-13.122 5.08-2.169 10.956.192 13.123 5.272 12.214 28.621 20.815 61.284-8.006 86.538-9.543 8.361-20.997 13.989-32.073 19.431-16.313 8.016-30.402 14.938-35.615 28.42-5.419 14.019.511 31.645 18.664 55.471 14.871 19.52 33.377 43.811 28.17 71.837-2.869 15.442-12.259 27.596-21.339 39.349-9.574 12.392-17.842 23.093-17.062 35.281.852 13.314 12.833 24.539 24.44 33.764l2.245 1.779c13.438 10.637 28.668 22.691 34.271 41.118 4.598 15.124 1.673 33.09-8.025 49.292-6.366 10.637-14.907 19.668-23.268 27.732 4.186 9.857.513 23.335-2.393 33.996-1.95 7.154-4.16 15.263-3.594 19.692.432 3.384 2.987 5.698 7.145 9.107 4.213 3.455 9.457 7.755 9.581 15.063.106 6.283-3.882 10.694-6.147 12.813-4.083 6.14-8.948 18.333-9.395 24.103 1.448-.288 3.726-.945 7.074-2.419 2.95-1.3 6.344-1.097 9.118.542 2.774 1.64 4.588 4.516 4.874 7.726 1.496 16.857-21.116 30.063-42.758 35.2-6.929 1.645-13.518 2.446-19.64 2.446zm27.932-150.013h.01z"/><path d="m556.196 1310.912c44.819 58.322 58.637 122.902 30.865 144.245-27.772 21.342-125.738 9.25-170.557-49.072s-19.518-140.789 8.254-162.131c12.596-9.68 50.787-24.115 71.96-14.824 25.509 11.194 34.986 49.912 59.477 81.781z"/><path d="m545.889 1475.066c-44.873 0-104.699-20.447-137.314-62.888-21.404-27.854-30.309-64.215-25.072-102.386 4.355-31.743 18.157-60.699 35.163-73.768 15.051-11.566 56.502-27.27 82.071-16.052 19.029 8.351 29.85 28.135 41.306 49.08 6.557 11.988 13.337 24.386 22.083 35.765 22.564 29.363 38.369 61.322 44.504 89.991 6.682 31.226 1.186 55.474-15.475 68.276-10.334 7.941-27.323 11.98-47.266 11.98zm-65.691-238.962c-17.304 0-40.271 8.806-49.345 15.779-22.439 17.243-48.747 93.027-6.419 148.107 18.454 24.015 49.786 42.514 85.963 50.754 33.42 7.611 60.799 3.991 70.572-3.517 10.056-7.729 13.009-25.309 8.104-48.234-5.525-25.817-20.019-54.938-40.805-81.988-9.689-12.609-17.171-26.287-23.771-38.355-10.199-18.646-19.007-34.75-31.795-40.362-3.48-1.527-7.782-2.184-12.503-2.184z"/><path d="m16.387 1590.215c12.074 45.588 20.379 102.548 48.283 134.977 32.204 37.425 103.358 55.065 152.662 52.444 33.337-1.772 62.054-18.123 92.22-32.423 53.83-25.517 74.007-56.368 104.238-85.09 24.299-23.086 59.12-42.098 92.598-76.331 16.789-17.167 31.078-28.695 51.304-53.807 12.044-14.953 36.289-56.31 36.289-56.31s-64.48-16.977-81.073-26.636c-34.926-20.33-18.924-67.267-28.833-106.445s-9.666-73.09-8.956-113.496c-62.616 17.991-128.369 47.731-161.713 81.401-35.415 35.761-82.042 67.864-126.107 98.33-12.753 8.817-37.287 14.993-50.053 24.3-13.386 9.759-28.491 38.963-29.71 55.485-.725 9.825-91.15 103.601-91.15 103.601z" fill="#fff"/><path d="m207.452 1787.892c-51.253 0-118.144-18.736-150.362-56.178-23.684-27.523-35.349-77.395-45.641-121.396-2.59-11.073-5.037-21.532-7.517-30.898-1.414-5.339 1.768-10.813 7.106-12.228 5.337-1.413 10.813 1.769 12.227 7.106 2.556 9.648 5.034 20.246 7.659 31.465 9.285 39.695 20.84 89.098 41.326 112.905 29.187 33.918 96.418 51.554 144.551 48.98 26.621-1.415 50.463-13.023 75.706-25.314 4.164-2.027 8.469-4.123 12.762-6.158 39.353-18.655 59.501-39.808 80.833-62.203 6.603-6.932 13.431-14.1 20.8-21.102 10.718-10.183 23.247-19.492 36.512-29.349 17.371-12.907 37.06-27.537 55.824-46.725 4.988-5.1 9.793-9.745 14.44-14.236 11.458-11.076 22.28-21.537 36.226-38.851 6.45-8.008 20.448-33.551 31.417-54.389-1.986.662-4.034 1.32-6.118 1.96-32.436 9.956-44.265 6.406-50.341 2.869-33.862-19.711-46.891-75.517-56.404-116.264-1.451-6.216-2.822-12.086-4.159-17.371-4.117-16.278-4.026-30.578-3.931-45.717.038-5.919.076-12.039-.161-18.314-.413-10.951 1.073-19.791 2.509-28.34.559-3.325 1.103-6.563 1.533-9.886-30.408 5.868-82.113 33.709-145.056 78.393-19.077 13.543-37.902 28.99-57.832 45.344-22.007 18.059-44.763 36.731-68.376 53.058-7.073 4.89-16.718 8.829-26.047 12.639-8.948 3.654-18.202 7.434-23.803 11.517-8.569 6.247-19.201 24.27-23.618 38.515 1.554 1.035 2.836 2.517 3.631 4.359 2.151 4.988-.076 10.763-4.976 13.032.558 2.747 1.375 5.608 2.215 8.552.896 3.14 1.824 6.386 2.53 9.787 2.65 12.744.831 29.204-12.222 37.185-6.295 3.849-14.219 4.555-21.74 1.936-8.453-2.944-15.267-9.515-18.227-17.577-4.586-12.492-.863-27.848 9.483-39.12 5.239-5.709 11.443-9.918 17.717-13.297 2.924-20.023 18.977-48.999 33.425-59.532 7.568-5.518 17.967-9.765 28.023-13.871 8.336-3.404 16.956-6.925 22.235-10.574 22.937-15.858 45.369-34.266 67.063-52.067 20.208-16.582 39.294-32.244 58.941-46.191 53.497-37.977 125.982-83.247 167.501-83.247 2.683 0 5.253 1.078 7.133 2.991 1.88 1.914 2.913 4.502 2.866 7.185-.162 9.228-1.44 16.833-2.676 24.188-1.328 7.903-2.582 15.368-2.247 24.271.253 6.716.213 13.06.174 19.194-.087 13.826-.17 26.885 3.321 40.687 1.382 5.463 2.772 11.421 4.245 17.728 8.686 37.203 20.582 88.154 46.989 103.526.269.157 6.878 3.727 34.249-4.654 15.283-4.678 28.872-10.617 29.007-10.677 3.864-1.697 8.376-.783 11.278 2.278 2.902 3.063 3.571 7.616 1.67 11.383-3.372 6.682-33.297 65.726-45.647 81.06-14.727 18.284-26.508 29.672-37.902 40.686-4.548 4.396-9.25 8.941-14.042 13.841-19.868 20.315-40.229 35.445-58.194 48.794-12.766 9.485-24.824 18.445-34.666 27.795-7.007 6.657-13.364 13.331-20.094 20.396-21.652 22.73-44.041 46.235-86.748 66.48-4.199 1.99-8.456 4.063-12.573 6.067-25.924 12.623-52.73 25.675-83.4 27.306-3.382.18-6.862.27-10.411.27zm-107.485-282.991c-1.821 1.371-3.516 2.863-5.018 4.5-4.377 4.769-7.757 12.401-5.443 18.704.876 2.388 3.299 4.631 6.029 5.582 1.083.376 3.136.864 4.731-.112 3.733-2.282 4.372-9.802 3.073-16.05-.558-2.684-1.346-5.444-2.181-8.366-.395-1.383-.8-2.803-1.191-4.258z"/><path d="m616.948 1240.663c9.55 3.702 17.791 16.034 19.505 26.132 1.601 9.434-5.329 18.649-13.924 22.856-8.595 4.206-18.5 4.547-28.065 4.807-11.227.306-66.333-.872-76.273-3.479-13.066-3.427-20.969-11.943-21.446-26.537-.434-13.271 4.735-26.162 15.541-29.679 30.648-9.973 74.236-5.895 104.663 5.9z" fill="#fff"/><path d="m590.056 1304.498c-16.86 0-63.644-1.025-74.401-3.847-18.037-4.73-28.302-17.474-28.904-35.883-.634-19.362 8.175-34.873 22.441-39.515 30.625-9.967 76.422-7.462 111.372 6.085 13.917 5.396 23.653 21.433 25.749 33.783 2.216 13.06-5.756 26.84-19.387 33.511-10.697 5.235-22.613 5.561-32.188 5.821-1.047.028-2.646.044-4.681.044zm-37.559-65.309c-13.682 0-26.603 1.662-37.117 5.083-5.412 1.762-8.965 9.921-8.641 19.843.313 9.561 4.496 14.702 13.989 17.191 7.921 2.076 60.62 3.502 73.464 3.156 8.43-.229 17.147-.468 23.941-3.793 4.781-2.34 9.252-7.543 8.461-12.201-1.246-7.34-7.689-16.321-13.26-18.48-18.293-7.092-40.41-10.799-60.837-10.799z"/><path d="m617.393 1350.666c10.085-3.658 18.996-16.382 21.022-26.917 1.892-9.842-5.153-19.65-14.057-24.251s-19.267-5.184-29.278-5.676c-11.749-.577-69.478-.604-79.946 1.898-13.76 3.289-22.23 12.026-23.064 27.296-.759 13.886 4.359 27.503 15.594 31.432 31.864 11.144 77.598 7.871 109.728-3.783z" fill="#fff"/><path d="m553.928 1371.261c-18.121 0-35.438-2.431-49.565-7.371-14.629-5.116-23.374-21.374-22.278-41.418 1.04-19.035 11.951-31.989 30.724-36.477 12.648-3.023 72.592-2.659 82.76-2.161 9.975.491 22.388 1.101 33.378 6.78 13.935 7.201 21.866 21.604 19.287 35.022-2.453 12.758-12.901 29.16-27.433 34.43-20.429 7.411-44.275 11.194-66.874 11.194zm18.92-67.767c-21.325 0-49.599.568-55.389 1.952-10.101 2.415-14.851 8.002-15.403 18.116-.579 10.592 3.085 19.411 8.91 21.448 27.346 9.563 70.67 7.988 103.017-3.745t0 0c6.121-2.22 13.085-11.468 14.61-19.403.976-5.077-3.722-10.841-8.828-13.479-7.13-3.685-16.305-4.136-25.177-4.571-4.143-.203-12.256-.316-21.741-.316z"/><path d="m619.245 1409.639c8.822-3.95 15.994-15.971 17.122-25.571 1.053-8.969-5.923-17.32-14.226-20.869-8.304-3.55-17.655-3.392-26.683-3.176-10.596.254-62.476 4.024-71.719 6.961-12.149 3.86-19.186 12.269-18.932 26.046.231 12.529 5.725 24.429 16.08 27.222 29.367 7.92 70.251 1.972 98.359-10.613z" fill="#fff"/><path d="m550.873 1433.774c-11.767 0-22.917-1.258-32.591-3.866-13.918-3.753-23.133-18.155-23.475-36.692-.326-17.649 8.873-30.35 25.902-35.761 11.253-3.575 65.314-7.207 74.507-7.428 9.09-.219 20.403-.49 30.854 3.978 13.396 5.728 21.714 18.569 20.227 31.23-1.396 11.896-9.92 27.69-22.967 33.532-21.756 9.741-48.391 15.007-72.458 15.007zm50.888-63.85c-2.018 0-4.048.048-6.063.097-12.104.29-61.6 4.165-68.931 6.494-8.545 2.716-12.123 7.6-11.961 16.331.168 9.118 3.739 16.418 8.685 17.751 25.005 6.743 63.558 2.502 91.669-10.084 4.996-2.237 10.476-10.795 11.276-17.61.431-3.671-3.259-8.385-8.225-10.508-4.807-2.056-10.563-2.471-16.449-2.471zm17.484 39.716h.01z"/><path d="m617.344 1450.571c6.432-3.486 11.158-12.97 11.459-20.28.282-6.83-5.462-12.733-11.932-14.937s-13.52-1.55-20.321-.869c-7.983.798-46.924 6.614-53.732 9.36-8.949 3.609-13.779 10.358-12.798 20.742.892 9.443 5.72 18.11 13.695 19.625 22.618 4.296 53.135-2.533 73.63-13.641z" fill="#fff"/><path d="m558.287 1475.464c-5.819 0-11.362-.464-16.438-1.428-11.811-2.244-20.361-13.436-21.785-28.51-1.347-14.257 5.583-25.54 19.013-30.957 8.996-3.627 50.844-9.473 56.478-10.035 7.084-.707 15.898-1.588 24.539 1.353 11.452 3.901 19.142 14.105 18.701 24.815-.401 9.728-6.385 23.077-16.686 28.66-18.799 10.189-43.054 16.102-63.823 16.102zm48.132-51.63c-2.863 0-5.896.303-8.875.601-9.809.98-45.92 6.707-50.993 8.687-5.313 2.143-7.098 4.996-6.576 10.524.583 6.168 3.308 10.306 5.606 10.742 18.765 3.561 46.942-1.739 66.998-12.609 2.909-1.576 6.055-7.582 6.232-11.899.063-1.536-2.132-4.026-5.165-5.06-2.157-.734-4.622-.985-7.228-.985z"/><path d="m1027.847 1241.281c-64.997 34.431-114.837 147.124-98.441 178.075s120.971.961 185.969-33.47c64.997-34.431 76.243-119.956 59.848-150.907-7.436-14.038-7.846-73.584-30.966-73.929-27.854-.416-80.892 61.416-116.41 80.23z"/><path d="m963.496 1442.318c-22.096 0-36.477-6.104-42.928-18.282-11.577-21.854 2.031-64.414 18.627-96.956 22.271-43.671 52.876-78.165 83.97-94.637 13.514-7.158 30.788-21.879 47.492-36.114 27.505-23.44 53.485-45.556 73.748-45.278 11.425.171 20.223 8.046 26.149 23.408 4.121 10.683 6.526 23.722 8.647 35.226 1.518 8.229 3.238 17.557 4.857 20.613 10.04 18.952 10.565 51.024 1.338 81.709-11.095 36.896-34.3 66.271-65.342 82.716-34.356 18.199-77.945 34.364-113.757 42.186-16.52 3.608-30.8 5.41-42.802 5.41zm69.032-192.201c-27.14 14.377-55.37 46.545-75.516 86.049-19.229 37.707-24.023 68.593-18.77 78.509 3.642 6.874 22.533 11.704 63.788 2.694 34.162-7.462 75.799-22.911 108.663-40.32 35.458-18.783 50.024-52.422 55.551-70.802 8.811-29.301 6.249-55.057.141-66.588-3.057-5.77-4.731-14.851-6.852-26.347-1.963-10.646-4.188-22.711-7.639-31.656-2.549-6.607-5.46-10.573-7.787-10.607-.053 0-.107 0-.161 0-12.788 0-39.131 22.449-60.317 40.503-17.526 14.936-35.648 30.38-51.102 38.566z"/><path d="m1376.31 1640.418c-11.103 60.302-65.285 109.631-104.139 127.536-44.841 20.664-103.353-14.614-147.112-37.481-29.588-15.461-48.916-42.265-70.415-67.805-38.363-45.574-43.9-82.02-59.467-120.705-12.512-31.095-51.737-70.786-59.703-102.032-4.743-18.605-8.806-27.859-8.806-27.859s127.971 3.656 147.078 1.763c40.215-3.983 71.719-73.268 97.009-104.788 25.29-31.521-3.578-109.014-26.498-147.998 49.483 42.378 89.096 134.422 105.438 178.901 17.357 47.242 29.305 19.687 56.73 65.705 7.937 13.318 27.688 29.129 35.434 42.898 8.122 14.439 15.095 50.899 9.34 66.434-3.422 9.238 33.93 77.529 25.111 125.43z" fill="#fff"/><path d="m1242.138 1784.23c-9.443 0-19.538-1.372-30.385-4.112-5.355-1.353-8.599-6.789-7.247-12.145 1.352-5.354 6.79-8.603 12.144-7.246 20.564 5.194 37.356 4.587 51.336-1.854 36.608-16.87 80.38-67.841 90.536-97.735 19.94-58.692-3.093-104.432-15.467-129.004-5.976-11.867-8.976-17.823-6.598-24.239 4.965-13.404 3.17-42.912-3.313-54.437-3.398-6.04-10.245-13.321-16.866-20.363-6.903-7.341-14.041-14.932-18.442-22.318-12.715-21.336-19.397-25.933-26.471-30.799-8.207-5.646-16.692-11.483-30.322-35.013-7.434-12.834-16.034-31.429-25.991-52.959-19.43-42.014-45.296-97.941-67.421-116.854-6.297 9.419-15.913 21.162-25.925 33.391-10.979 13.409-22.332 27.275-25.75 34.071-2.797 5.56.296 13.877 3.571 22.683 4.597 12.361 10.319 27.746-.389 41.091-3.412 4.252-7.097 9.022-10.999 14.072-25.582 33.114-60.618 78.464-99.608 82.325-11.568 1.146-34.616 9.345-49.111 14.962 1.607 4.797 3.617 11.37 5.745 19.715 3.934 15.43 17.391 34.616 30.404 53.172 11.226 16.005 22.833 32.555 28.886 47.597 3.794 9.43 7.027 18.786 10.153 27.834 10.1 29.233 19.64 56.846 47.687 90.165 3.058 3.632 6.101 7.325 9.044 10.896 7.669 9.306 14.913 18.097 22.735 26.343 3.801 4.007 3.634 10.336-.374 14.137-4.006 3.802-10.336 3.635-14.137-.373-8.302-8.753-16.109-18.226-23.659-27.388-2.911-3.531-5.92-7.184-8.911-10.736-30.438-36.158-41.038-66.841-51.29-96.513-3.186-9.222-6.196-17.933-9.804-26.898-5.194-12.908-16.13-28.501-26.706-43.579-14.047-20.028-28.573-40.739-33.41-59.715-4.431-17.382-8.242-26.24-8.28-26.327-1.067-2.458-1.107-5.251-.104-7.736s2.958-4.473 5.433-5.501c1.762-.731 43.375-17.94 63.727-19.956 30.408-3.012 62.396-44.417 85.753-74.649 3.959-5.125 7.699-9.966 11.226-14.361 3.25-4.051 1.568-9.974-2.757-21.604-4.191-11.27-9.407-25.294-2.692-38.643 4.411-8.769 15.938-22.848 28.142-37.753 11.969-14.619 25.536-31.188 28.858-38.816 1.072-2.459 3.086-4.385 5.591-5.345s5.291-.871 7.731.242c30.305 13.842 59.253 76.433 84.792 131.656 9.345 20.206 18.171 39.291 25.145 51.329 11.371 19.631 17.386 23.77 24.351 28.561 8.137 5.599 17.36 11.943 32.316 37.038 3.286 5.513 9.664 12.297 15.833 18.856 7.44 7.913 15.135 16.096 19.726 24.258 8.918 15.854 11.418 49.754 5.372 69.03.863 2.299 3.109 6.759 4.971 10.455 12.717 25.254 39.179 77.801 16.541 144.434-5.887 17.328-20.292 39.47-39.524 60.747-20.321 22.481-42.189 39.784-61.579 48.719-10.413 4.799-21.747 7.192-34.218 7.193z"/><path d="m946.31 1193.494c-9.143 4.616-16.143 17.693-16.863 27.91-.673 9.545 7.122 18.041 16.086 21.389s18.855 2.721 28.4 2.047c11.204-.791 65.932-7.337 75.57-10.901 12.669-4.685 19.704-13.931 18.756-28.502-.862-13.25-7.263-25.576-18.362-28.022-31.474-6.936-74.457 1.373-103.588 16.079z" fill="#fff"/><path d="m962.431 1255.372c-6.614 0-13.639-.688-20.397-3.212-14.215-5.31-23.494-18.246-22.562-31.46.881-12.496 9.008-29.407 22.332-36.134 33.461-16.892 78.794-23.85 110.247-16.918 14.652 3.229 24.931 17.808 26.188 37.139 1.195 18.38-7.778 32.063-25.267 38.53-11.695 4.324-68.631 10.813-78.335 11.497-3.768.266-7.9.558-12.206.558zm-11.614-52.952c-5.333 2.692-10.872 12.261-11.396 19.688-.332 4.713 4.625 9.455 9.61 11.316 7.087 2.647 15.786 2.034 24.198 1.439 12.814-.903 65.122-7.463 72.807-10.305 9.204-3.402 12.866-8.928 12.245-18.473-.644-9.906-4.977-17.681-10.535-18.906-26.918-5.933-67.686.479-96.929 15.24z"/><path d="m956.595 1303.016c-10.393-2.657-20.503-14.452-23.546-24.739-2.843-9.611 3.212-20.059 11.625-25.506 8.412-5.448 18.67-7.038 28.584-8.504 11.637-1.72 69.088-7.377 79.75-5.907 14.015 1.932 23.297 9.801 25.616 24.917 2.109 13.746-1.656 27.797-12.455 32.803-30.625 14.198-76.46 15.401-109.574 6.935z" fill="#fff"/><path d="m1001.297 1318.315c-16.152 0-32.413-1.836-47.178-5.61-14.977-3.828-26.975-19.133-30.66-31.59-3.876-13.104 2.612-28.211 15.779-36.736 10.387-6.728 22.68-8.544 32.558-10.003 9.727-1.439 69.958-7.665 82.577-5.921 19.121 2.636 31.243 14.464 34.134 33.307 3.045 19.841-4.073 36.874-18.132 43.393-18.637 8.64-43.729 13.16-69.079 13.161zm46.407-70.222c-15.33 0-61.009 4.297-72.983 6.067-8.787 1.298-17.873 2.641-24.611 7.005-4.825 3.124-8.938 9.317-7.472 14.275 2.292 7.749 10.125 16.274 16.433 17.887 33.335 8.524 76.609 5.865 102.891-6.318 5.599-2.596 8.385-11.731 6.776-22.215-1.536-10.012-6.809-15.109-17.097-16.527-.865-.119-2.209-.174-3.939-.174z"/><path d="m960.503 1361.889c-9.165-3.071-17.476-14.335-19.534-23.779-1.923-8.823 4.205-17.815 12.123-22.157s17.241-5.098 26.247-5.763c10.571-.781 62.571-2.088 72.056-.066 12.468 2.657 20.291 10.339 21.382 24.076.992 12.491-3.316 24.871-13.349 28.66-28.455 10.746-69.724 8.814-98.925-.971z" fill="#fff"/><path d="m1013.567 1380.069c-19.101 0-38.958-2.908-56.241-8.699-13.553-4.541-23.577-19.43-26.127-31.132-2.715-12.455 4.311-26.048 17.084-33.054 9.963-5.465 21.25-6.298 30.319-6.968 9.168-.679 63.323-2.337 74.877.126 17.475 3.725 27.869 15.467 29.266 33.064 1.467 18.481-6.299 33.714-19.785 38.808-13.885 5.243-31.301 7.854-49.394 7.854zm-49.887-27.662c29.204 9.784 67.985 10.246 92.215 1.097 4.792-1.81 7.635-9.423 6.913-18.514-.691-8.706-4.728-13.218-13.498-15.087-7.526-1.604-57.163-.633-69.235.259-7.877.582-16.022 1.184-22.174 4.558-4.736 2.598-7.948 7.649-7.162 11.261 1.461 6.704 7.75 14.688 12.94 16.427z"/><path d="m966.386 1402.439c-6.742-2.843-12.369-11.82-13.382-19.066-.946-6.77 4.194-13.205 10.419-16.029s13.304-2.861 20.14-2.847c8.023.016 47.345 2.006 54.388 4.075 9.258 2.719 14.723 8.965 14.76 19.395.033 9.485-3.926 18.582-11.716 20.867-22.091 6.482-53.129 2.661-74.609-6.396z" fill="#fff"/><path d="m1015.76 1422.015c-17.813 0-37.2-3.59-53.259-10.36-10.795-4.553-18.053-17.255-19.4-26.896-1.484-10.617 5.174-21.522 16.19-26.521 8.316-3.772 17.167-3.751 24.292-3.741 5.662.011 47.882 1.748 57.187 4.48 13.895 4.082 21.892 14.636 21.942 28.955.054 15.143-7.365 27.114-18.901 30.498-8.229 2.414-17.884 3.584-28.05 3.584zm-45.489-28.79c21.02 8.862 49.58 11.393 67.908 6.015 2.245-.658 4.553-5.041 4.531-11.236-.02-5.553-2.073-8.219-7.579-9.836-5.233-1.473-41.731-3.65-51.589-3.67-5.714-.013-11.63-.023-15.988 1.954-2.917 1.324-4.859 4.016-4.646 5.539.598 4.278 4.314 9.948 7.363 11.234z"/><path d="m559.113 1726.847c27.45.975 29.35-5.18 56.843-4.372 46.861 1.378 93.727 10.738 140.544 11.818 38.807.895 79.711-11.691 118.374-15.041 36.189-3.135 70.149 3.166 106.11-1.955 24.657-3.511 49.21-7.75 73.617-12.708 14.05-2.854 40.03-3.174 46.96-15.725 5.482-9.929-6.561-26.072-8.396-37.265-6.412-39.11-5.414-102.022-12.017-167.63-14.27-141.799-33.724-280.835-24.715-319.8 3.664-15.846-5.009-32.453-4.292-48.701s9.768-32.937-4.207-41.256c-10.323-6.145-51.919 2.292-63.93 2.579-73.964 1.772-119.07-4.786-193.034-3.014-37.428.897-74.855 1.793-112.283 2.69-34.326.822-88.046-8.895-121.821-2.899-28.47 5.054-14.588 54.428-16.115 76.279-2.58 36.901 10.563 73.992 8.595 110.931-1.864 34.969-13.838 67.292-16.878 101.79-3.382 38.385 9.067 78.148 8.283 117.104-.185 9.176 10.458 55.839 8.595 108.509-2.335 66.016 8.479 138.665 9.767 138.665z" fill="#fff"/><path d="m760.464 1744.338c-1.401 0-2.798-.016-4.196-.048-24.276-.56-48.746-3.325-72.41-6-22.42-2.534-45.603-5.155-68.197-5.818-12.61-.373-19.229.814-26.23 2.068-7.761 1.391-15.787 2.824-30.674 2.301-2.587-.094-5.082-1.207-6.884-3.074-2.241-2.321-2.985-3.657-5.166-18.624-1.362-9.348-2.737-20.982-3.873-32.762-2.278-23.64-4.732-59.232-3.482-94.553 1.299-36.731-3.614-70.34-6.55-90.42-1.431-9.785-2.115-14.636-2.049-17.937.343-17.006-2.04-34.839-4.343-52.085-2.871-21.493-5.839-43.718-3.903-65.695 1.478-16.772 4.985-33.029 8.376-48.751 3.872-17.944 7.528-34.894 8.477-52.693.912-17.109-1.607-34.253-4.274-52.402-2.803-19.076-5.701-38.801-4.311-58.694.334-4.778-.245-11.799-.858-19.231-1-12.119-2.133-25.856-.084-37.618 3.579-20.545 15.726-26.88 25.285-28.577 21.884-3.886 50.292-1.659 77.765.493 16.823 1.317 32.714 2.564 45.564 2.255l112.283-2.69c37.305-.894 67.729.331 97.154 1.512 29.113 1.172 59.22 2.383 95.88 1.502 2.976-.071 9.048-.854 15.477-1.684 25.484-3.287 44.26-5.175 53.807.509 16.083 9.573 13.017 26.134 10.778 38.226-.751 4.056-1.527 8.249-1.696 12.064-.256 5.808 1.033 12.115 2.397 18.793 2.072 10.137 4.214 20.619 1.648 31.72-6.473 27.995 3.593 119.592 14.25 216.567 3.567 32.465 7.256 66.036 10.672 99.979 3.108 30.88 4.561 61.477 5.843 88.472 1.484 31.257 2.766 58.251 6.092 78.541.456 2.783 2.2 6.934 3.887 10.948 4.137 9.847 9.286 22.102 3.395 32.769-7.831 14.184-27.718 16.926-43.698 19.128-3.729.515-7.252 1-10.026 1.563-24.487 4.975-49.451 9.284-74.198 12.809-20.538 2.923-40.423 2.279-59.653 1.658-15.342-.498-31.207-1.01-47.004.358-15.118 1.31-30.419 4.044-46.618 6.938-22.543 4.028-45.813 8.186-68.654 8.186zm-149.386-31.937c1.628 0 3.348.024 5.172.078 23.425.688 47.029 3.356 69.855 5.937 23.227 2.626 47.244 5.34 70.625 5.88 22.184.505 45.915-3.729 68.871-7.831 15.924-2.846 32.39-5.788 48.41-7.176 16.982-1.47 33.451-.937 49.377-.423 19.222.623 37.375 1.212 56.187-1.469 24.359-3.469 48.932-7.711 73.036-12.607 3.396-.689 7.224-1.218 11.276-1.776 9.7-1.337 25.935-3.575 28.92-8.983 1.207-2.186-2.67-11.413-4.326-15.354-2.136-5.086-4.346-10.345-5.184-15.459-3.513-21.427-4.82-48.954-6.333-80.829-1.271-26.747-2.71-57.063-5.765-87.418-3.407-33.851-7.091-67.375-10.653-99.796-11.785-107.243-21.093-191.95-13.855-223.258 1.585-6.856-.038-14.8-1.756-23.21-1.548-7.573-3.148-15.404-2.783-23.68.23-5.205 1.176-10.314 2.01-14.823 2.286-12.346 2.08-15.32-1.268-17.354-5.534-2.489-30.441.723-41.094 2.097-7.563.976-13.537 1.746-17.557 1.842-37.303.895-67.734-.328-97.162-1.512-29.111-1.17-59.212-2.377-95.872-1.502l-112.283 2.69c-13.875.331-30.258-.951-47.605-2.311-26.223-2.056-53.338-4.178-72.707-.74-2.5.444-7.153 1.271-9.078 12.318-1.609 9.238-.588 21.618.313 32.541.678 8.214 1.318 15.972.877 22.271-1.24 17.733 1.377 35.54 4.147 54.392 2.692 18.323 5.476 37.271 4.458 56.375-1.033 19.394-5.031 37.925-8.898 55.847-3.412 15.818-6.636 30.759-8.004 46.289-1.742 19.771.952 39.938 3.804 61.291 2.403 17.993 4.888 36.599 4.515 55.136-.036 1.791.919 8.323 1.842 14.641 3.034 20.75 8.111 55.48 6.748 94.021-1.899 53.702 4.86 109.406 7.879 128.392 8.011-.16 13.23-1.096 18.686-2.073 6.742-1.208 13.684-2.452 25.174-2.452zm-51.915 4.446c.102 0 .203.003.305.006l.067.003c-.124-.005-.247-.008-.372-.009zm-.024 0h.012zm483.68-634.041.01.006z"/><path d="m871.517 1831.793c13.062-16.986 28.009-26.547 41.072-43.534 4.464-5.805 7.986-19.554 15.3-19.918 6.931-.345 10.706 12.701 15.685 17.534 15.474 15.021 33.004 22.17 48.478 37.192-2.587-23.705-5.173-47.411-7.76-71.116-1.144-10.485 1.739-20.969.595-31.454-2.064-18.919-13.594-31.698-16.684-50.617-2.97-18.18 2.497-42.499.514-60.679-22.096 1.653-44.192 3.306-66.288 4.959-11.989.897-54.988 4.872-54.988 4.872s-.757 26.211 0 35.752c.862 10.864 5.282 32.833 6.144 43.697 1.75 22.056 1.64 51.831 3.39 73.888 1.985 25.019 12.557 34.404 14.542 59.424z" fill="#85cbf8"/><path d="m871.516 1841.794c-.946 0-1.902-.135-2.841-.413-3.967-1.176-6.8-4.673-7.127-8.797-.885-11.151-3.708-18.886-6.696-27.074-3.316-9.087-6.746-18.482-7.846-32.35-.894-11.267-1.314-24.563-1.721-37.423-.399-12.623-.813-25.675-1.668-36.465-.399-5.03-1.709-13.174-2.977-21.05-1.391-8.646-2.705-16.814-3.168-22.647-.791-9.966-.059-35.739-.027-36.832.146-5.054 4.042-9.203 9.076-9.669 1.759-.162 43.224-3.992 55.162-4.886l66.289-4.959c5.382-.42 10.103 3.529 10.687 8.887 1.024 9.389.278 19.887-.444 30.039-.755 10.609-1.535 21.58-.141 30.112 1.269 7.768 4.309 14.587 7.526 21.807 3.924 8.804 7.982 17.907 9.229 29.338.676 6.196.194 12.013-.272 17.638-.406 4.899-.79 9.528-.322 13.815l7.76 71.116c.458 4.191-1.763 8.219-5.551 10.069-3.788 1.853-8.33 1.128-11.355-1.809-7.093-6.885-14.746-12.026-22.849-17.469-8.479-5.696-17.248-11.587-25.63-19.724-2.729-2.648-4.735-6.058-6.676-9.354-.499-.849-1.145-1.944-1.794-2.977-.885 1.555-1.794 3.377-2.463 4.717-1.546 3.098-3.146 6.302-5.159 8.919-7.009 9.115-14.418 16.137-21.583 22.928-6.91 6.549-13.436 12.734-19.489 20.606-1.925 2.504-4.875 3.905-7.928 3.905zm-14.28-213.619c-.158 8.89-.243 20.576.173 25.818.399 5.031 1.709 13.177 2.977 21.053 1.391 8.646 2.705 16.813 3.168 22.645.894 11.265 1.314 24.558 1.721 37.414.399 12.626.813 25.682 1.669 36.474.885 11.151 3.708 18.886 6.696 27.074 1.34 3.672 2.699 7.396 3.915 11.443 2.552-2.525 5.102-4.942 7.621-7.33 6.909-6.548 13.434-12.732 19.486-20.603.836-1.087 2.049-3.517 3.119-5.661 3.71-7.432 8.792-17.61 19.61-18.148 10.516-.567 16.094 8.937 19.778 15.197 1.088 1.849 2.578 4.38 3.37 5.148 7.094 6.887 14.748 12.028 22.852 17.472 2.026 1.361 4.07 2.734 6.12 4.146l-5.159-47.281c-.676-6.196-.194-12.013.272-17.638.406-4.899.79-9.527.322-13.815-.908-8.318-4.166-15.627-7.615-23.365-3.595-8.064-7.312-16.403-8.998-26.725-1.771-10.842-.907-22.999-.07-34.756.417-5.87.821-11.543.891-16.792l-55.98 4.188c-8.429.631-32.697 2.83-45.938 4.042z"/><path d="m851.153 1483.401s-38.942-16.088-50.544 15.757c-7.35 18.402 11.256 27.292 16.824 41.357 2.257 10.556-7.966 19.086-13.354 28.44-15.306 25.138 10.175 58.343 38.427 50.023 7.855 21.732 24.711 47.569 50.835 44.477 12.052-1.687 22.938-12.655 21.984-24.788 17.432 9.384 41.681 18.88 58.643 4.088 7.735-7.034 10.275-20.05 3.767-28.233 49.669 16.144 53.733-33.749 10.521-48.082 13.767-6.935 20.895-24.777 15.699-39.289-3.379-9.436-14.727-21.864-14.727-21.864s13.312-20.764 11.046-30.959c-5.523-24.854-46.551-23.67-52.863-4.34 4.069-12.461-13.581-22.842-22.881-22.881-13.15-.055-26.037 13.808-26.037 13.808s-19.725-28.799-44.909-19.331c-16.245 6.108-2.431 41.817-2.431 41.817z" fill="#85cbf8"/><path d="m889.163 1673.704c-21.652 0-40.85-15.792-52.96-43.531-14.02.848-27.919-5.521-37.168-17.559-11.242-14.631-12.635-33.754-3.562-48.754 1.782-3.075 3.851-5.875 5.853-8.583 3.358-4.543 6.542-8.852 6.412-11.997-1.437-3.054-3.999-6.215-6.698-9.544-7.051-8.698-16.701-20.603-9.774-38.144 3.92-10.657 10.999-18.493 20.481-22.669 8.473-3.73 17.533-4.075 25.178-3.228-1.589-8.523-2.122-18.484 1.331-26.194 2.409-5.379 6.493-9.279 11.811-11.278 22.024-8.278 40.001 4.915 49.463 14.513 6.195-4.609 15.181-9.63 24.926-9.63h.116c9.428.04 20.813 5.779 27.382 13.607 6.513-3.617 14.592-5.507 23.226-5.091 17.785.862 31.467 11.278 34.857 26.535 2.217 9.978-3.881 23.58-8.578 32.107 4.036 5.066 9.451 12.64 11.912 19.514 4.854 13.556 1.703 29.044-6.963 40.232 18.175 11.646 24.841 29.927 20.211 44.028-3.608 10.989-14.807 21.155-35.17 19.522-.439 8.248-4.114 16.554-10.752 22.59-.051.047-.103.093-.155.139-18.726 16.329-42.828 9.745-58.271 2.978-4.958 10.284-15.346 18.382-27.542 20.09-.07.01-.141.02-.211.027-1.799.213-3.584.318-5.353.318zm-46.653-64.728c4.111 0 7.938 2.552 9.401 6.603 3.467 9.593 16.6 40.643 40.143 37.959 7.336-1.08 13.788-7.899 13.302-14.087-.287-3.648 1.442-7.162 4.508-9.16 3.065-2.001 6.979-2.162 10.201-.429 22.185 11.941 37.641 13.718 47.248 5.428 4.204-3.889 5.47-10.93 2.596-14.544-2.747-3.454-2.904-8.3-.389-11.925 2.516-3.624 7.11-5.168 11.307-3.81 13.909 4.521 24.674 3.229 26.79-3.211 2.285-6.957-4.266-19.818-22.508-25.869-3.836-1.272-6.529-4.729-6.825-8.76-.295-4.031 1.865-7.844 5.475-9.662 9.228-4.648 14.266-17.259 10.783-26.987-1.956-5.461-8.829-14.243-12.702-18.496-3.047-3.346-3.472-8.326-1.029-12.136 5.589-8.749 10.306-20.126 9.7-23.405-2.104-9.468-13.008-10.726-16.3-10.885-8.181-.389-15.78 2.889-17.289 7.482 0 .004-.002.007-.003.01-1.714 5.251-7.359 8.115-12.61 6.402-5.25-1.714-8.116-7.359-6.402-12.609.116-.357.359-1.101-.848-2.771-2.875-3.98-9.607-6.995-12.57-7.008h-.038c-6.62 0-15.408 7.147-18.634 10.616-2.068 2.226-5.037 3.388-8.065 3.164-3.029-.226-5.792-1.815-7.509-4.321-.135-.193-15.683-22.177-33.139-15.621-.179.067-.321.121-.593.728-2.513 5.594.885 20.094 3.973 28.133 1.433 3.729.51 7.96-2.351 10.75-2.854 2.783-7.087 3.612-10.774 2.099-4.484-1.814-18.166-5.6-27.609-1.4-4.511 2.005-7.699 5.71-9.746 11.329-.035.096-.071.19-.109.285-2.465 6.172-.257 9.717 6.68 18.274 3.612 4.455 7.706 9.505 10.155 15.692.204.516.365 1.048.481 1.59 2.567 12.007-4.292 21.285-9.802 28.741-1.769 2.394-3.44 4.653-4.666 6.781-.04.07-.082.14-.124.209-5.839 9.59-2.654 19.86 2.274 26.273 4.924 6.409 14.024 12.128 24.787 8.956.941-.277 1.892-.409 2.828-.409z"/><path d="m854.005 1552.764c-1.763 13.631 1.928 28.771 12.665 37.352 10.286 8.22 24.497 8.873 37.661 9.164 9.399.208 18.989.39 27.977-2.37 11.834-3.634 21.954-12.499 27.121-23.748s5.3-24.699.363-36.051c-4.689-10.78-13.656-19.396-24.073-24.844-16.708-8.738-37.079-9.082-54.452-2.089-17.895 7.203-24.826 23.744-27.262 42.587z" fill="#fff"/><path d="m911.649 1609.387c-2.579 0-5.099-.056-7.538-.11-12.796-.282-30.32-.67-43.683-11.35-12.492-9.983-18.753-27.78-16.34-46.445 3.407-26.349 14.347-42.894 33.446-50.581 20.533-8.266 44.017-7.329 62.82 2.504 13.092 6.847 23.252 17.4 28.609 29.717 6.05 13.909 5.883 30.438-.446 44.215-6.334 13.789-18.773 24.68-33.272 29.133-7.926 2.435-16.008 2.918-23.596 2.918zm-57.644-56.623 9.917 1.282c-1.5 11.602 2.029 22.693 8.991 28.258 7.472 5.972 18.75 6.693 31.639 6.979 8.498.188 17.285.382 24.82-1.933 9.138-2.806 16.977-9.67 20.97-18.363 3.991-8.688 4.096-19.114.279-27.889-3.541-8.141-10.479-15.233-19.537-19.971-13.683-7.156-30.911-7.78-46.084-1.674-11.951 4.811-18.649 15.803-21.079 34.593l-9.917-1.282z"/><path d="m651.372 1201.85c-5.447 0-9.906-4.37-9.995-9.837-.09-5.521 4.313-10.071 9.835-10.162 48.093-.786 73.475-1.586 98.022-2.358 24.621-.776 50.081-1.578 98.325-2.367h.167c5.447 0 9.906 4.37 9.995 9.837.09 5.521-4.313 10.071-9.835 10.162-48.093.786-73.475 1.586-98.022 2.358-24.621.776-50.081 1.578-98.325 2.367-.056 0-.111 0-.167 0z"/><path d="m815.785 1287.993c-28.042 0-68.514-4.642-125.276-13.821-5.452-.882-9.157-6.017-8.275-11.469.881-5.451 6.016-9.149 11.468-8.275 33.632 5.439 76.429 11.87 109.118 13.326 43.25 1.935 47.703-5.968 47.736-6.047 2.087-5.114 7.927-7.566 13.037-5.48 5.114 2.087 7.567 7.924 5.48 13.037-5.117 12.539-20.918 18.729-53.288 18.729z"/><path d="m718.87 1366.907c-4.85 0-9.107-3.533-9.871-8.475-.843-5.458 2.898-10.566 8.356-11.409 13.203-2.039 43.751-2.634 76.093-3.263 30.254-.589 61.539-1.197 73.416-3.031 5.459-.845 10.566 2.898 11.409 8.356s-2.898 10.566-8.356 11.409c-13.201 2.039-43.743 2.633-76.08 3.262-30.26.589-61.551 1.197-73.428 3.032-.517.08-1.032.118-1.539.118z"/><path d="m556.196 1310.912c44.819 58.322 58.637 122.902 30.865 144.245-27.772 21.342-125.738 9.25-170.557-49.072s-19.518-140.789 8.254-162.131c12.596-9.68 50.787-24.115 71.96-14.824 25.509 11.194 34.986 49.912 59.477 81.781z"/><path d="m545.889 1475.066c-44.873 0-104.699-20.447-137.314-62.888-21.404-27.854-30.309-64.215-25.072-102.386 4.355-31.743 18.157-60.699 35.163-73.768 15.051-11.566 56.502-27.27 82.071-16.052 19.029 8.351 29.85 28.135 41.306 49.08 6.557 11.988 13.337 24.386 22.083 35.765 22.564 29.363 38.369 61.322 44.504 89.991 6.682 31.226 1.186 55.474-15.475 68.276-10.334 7.941-27.323 11.98-47.266 11.98zm-65.691-238.962c-17.304 0-40.271 8.806-49.345 15.779-22.439 17.243-48.747 93.027-6.419 148.107 18.454 24.015 49.786 42.514 85.963 50.754 33.42 7.611 60.799 3.991 70.572-3.517 10.056-7.729 13.009-25.309 8.104-48.234-5.525-25.817-20.019-54.938-40.805-81.988-9.689-12.609-17.171-26.287-23.771-38.355-10.199-18.646-19.007-34.75-31.795-40.362-3.48-1.527-7.782-2.184-12.503-2.184z"/><path d="m16.387 1590.215c12.074 45.588 20.379 102.548 48.283 134.977 32.204 37.425 103.358 55.065 152.662 52.444 33.337-1.772 62.054-18.123 92.22-32.423 53.83-25.517 74.007-56.368 104.238-85.09 24.299-23.086 59.12-42.098 92.598-76.331 16.789-17.167 31.078-28.695 51.304-53.807 12.044-14.953 36.289-56.31 36.289-56.31s-64.48-16.977-81.073-26.636c-34.926-20.33-18.924-67.267-28.833-106.445s-9.666-73.09-8.956-113.496c-62.616 17.991-128.369 47.731-161.713 81.401-35.415 35.761-82.042 67.864-126.107 98.33-12.753 8.817-37.287 14.993-50.053 24.3-13.386 9.759-28.491 38.963-29.71 55.485-.725 9.825-91.15 103.601-91.15 103.601z" fill="#fff"/><path d="m207.452 1787.892c-51.253 0-118.144-18.736-150.362-56.178-23.684-27.523-35.349-77.395-45.641-121.396-2.59-11.073-5.037-21.532-7.517-30.898-1.414-5.339 1.768-10.813 7.106-12.228 5.337-1.413 10.813 1.769 12.227 7.106 2.556 9.648 5.034 20.246 7.659 31.465 9.285 39.695 20.84 89.098 41.326 112.905 29.187 33.918 96.418 51.554 144.551 48.98 26.621-1.415 50.463-13.023 75.706-25.314 4.164-2.027 8.469-4.123 12.762-6.158 39.353-18.655 59.501-39.808 80.833-62.203 6.603-6.932 13.431-14.1 20.8-21.102 10.718-10.183 23.247-19.492 36.512-29.349 17.371-12.907 37.06-27.537 55.824-46.725 4.988-5.1 9.793-9.745 14.44-14.236 11.458-11.076 22.28-21.537 36.226-38.851 7.006-8.699 22.919-38.088 34.182-59.662-18.741 2.677-44.648 4.539-57.285-2.815-37.562-21.864-51.48-77.034-61.643-117.316l-.858-3.4c-4.117-16.278-4.026-30.578-3.931-45.717.038-5.919.076-12.039-.161-18.314-.413-10.951 1.073-19.791 2.509-28.34.559-3.325 1.103-6.563 1.533-9.886-30.408 5.868-82.113 33.709-145.056 78.393-19.077 13.543-37.902 28.99-57.832 45.344-22.007 18.059-44.763 36.731-68.376 53.058-7.073 4.89-16.718 8.829-26.047 12.639-8.948 3.654-18.202 7.434-23.803 11.517-10.684 7.789-24.576 33.884-25.628 48.14-.028.388-.045.778-.051 1.172.013.273.014.546.003.817.1 4.426 1.479 9.255 2.928 14.329.896 3.14 1.824 6.386 2.53 9.787 2.65 12.744.831 29.204-12.222 37.185-6.295 3.849-14.219 4.555-21.74 1.936-8.453-2.944-15.267-9.515-18.227-17.577-4.586-12.492-.863-27.848 9.483-39.12 6.712-7.313 11.04-10.394 17.762-13.601 3.041-20.012 19.004-48.748 33.38-59.229 7.568-5.518 17.967-9.765 28.023-13.871 8.336-3.404 16.956-6.925 22.235-10.574 22.937-15.858 45.369-34.266 67.063-52.067 20.208-16.582 39.294-32.244 58.941-46.191 53.497-37.977 125.982-83.247 167.501-83.247 2.683 0 5.253 1.078 7.133 2.991 1.88 1.914 2.913 4.502 2.866 7.185-.162 9.228-1.44 16.833-2.676 24.188-1.328 7.903-2.582 15.368-2.247 24.271.253 6.716.213 13.06.174 19.194-.087 13.826-.17 26.885 3.321 40.687l.861 3.412c9.294 36.84 22.022 87.293 52.311 104.924 8.165 4.752 39.183 2.125 63.239-3.034 3.764-.806 7.66.618 10.014 3.667 2.353 3.049 2.748 7.177 1.013 10.615-3.372 6.682-33.297 65.726-45.647 81.06-14.727 18.284-26.508 29.672-37.902 40.686-4.548 4.396-9.25 8.941-14.042 13.841-19.868 20.315-40.229 35.445-58.194 48.794-12.766 9.485-24.824 18.445-34.666 27.795-7.007 6.657-13.364 13.331-20.094 20.396-21.652 22.73-44.041 46.235-86.748 66.48-4.199 1.99-8.456 4.063-12.573 6.067-25.924 12.623-52.73 25.675-83.4 27.306-3.382.18-6.862.27-10.411.27zm-107.592-283.39c-1.461 1.243-2.964 2.778-4.911 4.899-4.377 4.769-7.757 12.401-5.443 18.704.876 2.388 3.299 4.631 6.029 5.582 1.083.376 3.136.864 4.731-.112 3.733-2.282 4.372-9.802 3.073-16.05-.558-2.684-1.346-5.444-2.181-8.366-.431-1.509-.875-3.063-1.298-4.657z"/><path d="m475.99 1350.469c7.15 57.844 54.785 105.919 87.418 101.885s37.908-58.65 30.758-116.493c-7.15-57.844-33.737-120.567-66.37-116.533-17.829 2.204-49.91 8.739-57.463 36.622-6.272 23.154 2.413 68.277 5.657 94.519z" fill="#fff"/><path d="m559.606 1462.583c-18.1 0-38.979-11.382-56.894-31.274-19.746-21.925-33.103-50.942-36.646-79.612-.599-4.842-1.399-10.434-2.248-16.354-3.906-27.275-8.768-61.22-3.137-82.007 6.655-24.569 28.823-39.35 65.888-43.933 13.677-1.686 33.948 3.942 52.846 40.384 11.838 22.829 20.832 53.755 24.675 84.848 2.803 22.671 4.974 55.25-.599 81.712-7.35 34.902-25.187 44.242-38.856 45.933-1.648.203-3.327.304-5.029.304zm-73.692-113.34c3.053 24.697 14.592 49.73 31.659 68.681 15.006 16.662 32.097 26.064 44.607 24.506 10.478-1.295 17.792-11.457 21.739-30.204 3.961-18.81 4.072-44.792.321-75.138-3.563-28.827-11.794-57.291-22.582-78.094-10.46-20.173-22.364-31.018-32.637-29.741-28.215 3.488-44.714 13.35-49.037 29.312-4.553 16.807.177 49.83 3.63 73.942.862 6.018 1.676 11.703 2.298 16.736z"/><path d="m515.365 1221.382c31.624-6.342 81.499-8.224 112.215 2.797 9.641 3.459 18.192 15.579 20.16 25.63 1.839 9.391-4.855 18.778-13.341 23.201s-18.379 5.013-27.935 5.516c-11.216.59-66.334.807-76.337-1.548" fill="#fff"/><path d="m578.853 1288.921c-19.856 0-43.687-.483-51.017-2.21-5.376-1.266-8.708-6.649-7.442-12.025s6.65-8.704 12.026-7.441c7.968 1.876 60.688 1.969 73.52 1.295 8.421-.442 17.127-.899 23.838-4.397 4.719-2.459 9.057-7.774 8.149-12.411-1.431-7.307-8.101-16.122-13.724-18.14-27.98-10.039-74.943-8.809-106.872-2.404-5.413 1.085-10.685-2.423-11.771-7.838s2.423-10.686 7.838-11.771c33.572-6.734 84.68-8.607 117.558 3.189 14.05 5.04 24.189 20.826 26.597 33.12 2.546 12.999-5.075 26.977-18.532 33.991-10.565 5.506-22.468 6.131-32.032 6.634-3.844.202-15.139.409-28.137.409z"/><path d="m533.109 1345.056c30.691 4.365 65.876 1.545 97.701-10.919 9.989-3.912 18.576-16.858 20.333-27.44 1.642-9.887-5.649-19.513-14.666-23.888-9.017-4.374-19.392-4.695-29.412-4.933-11.76-.279-66.535-3.664-76.936-.897" fill="#fff"/><path d="m560.782 1356.997c-9.736 0-19.476-.675-29.081-2.041-5.468-.777-9.27-5.841-8.492-11.309s5.84-9.28 11.309-8.492c31.348 4.46 64.25.79 92.646-10.331 6.063-2.375 12.791-11.797 14.115-19.768.847-5.101-3.995-10.742-9.166-13.251-7.223-3.504-16.405-3.723-25.285-3.934-2.676-.063-7.308-.273-13.171-.538-14.855-.672-54.315-2.458-60.958-.692-5.339 1.418-10.815-1.758-12.234-7.095s1.757-10.814 7.094-12.233c8.083-2.149 29.784-1.644 67.001.041 5.744.26 10.28.465 12.742.523 9.983.237 22.408.533 33.54 5.934 14.112 6.846 22.405 21.042 20.166 34.522-2.128 12.814-12.157 29.476-26.551 35.113-22.823 8.938-48.23 13.55-73.675 13.55z"/><path d="m536.095 1406.143c29.558 7.174 70.278.194 98.059-13.099 8.719-4.172 15.585-16.37 16.469-25.996.826-8.993-6.736-21.848-15.127-25.187-8.391-3.338-17.736-2.944-26.755-2.499-10.586.522-65.689 9.094-75.632 5.694" fill="#fff"/><path d="m562.333 1418.953c-10.265 0-19.994-1.005-28.597-3.093-5.367-1.303-8.662-6.709-7.359-12.076s6.714-8.657 12.076-7.359c25.167 6.108 63.601.892 91.384-12.402 4.938-2.362 10.2-11.057 10.827-17.89.427-4.647-4.709-13.328-8.865-14.98-6.523-2.595-14.678-2.193-22.566-1.803-2.708.133-9.891 1.006-17.496 1.93-35.661 4.333-54.014 5.921-61.864 3.238-5.226-1.786-8.014-7.471-6.228-12.697 1.774-5.188 7.391-7.974 12.584-6.265 6.39 1.546 39.105-2.431 53.094-4.13 8.999-1.094 15.501-1.884 18.923-2.053 9.081-.448 20.383-1.005 30.944 3.195 12.441 4.949 22.635 21.818 21.388 35.394-1.095 11.927-9.216 27.933-22.111 34.102-22.726 10.874-51.025 16.89-76.136 16.89zm-26.031-83.374c.014.005.028.01.042.015-.014-.005-.028-.01-.042-.015z"/><path d="m552.45 1451.901c22.72 3.722 60.633-6.268 80.839-17.892 6.342-3.648 10.826-13.248 10.942-20.563.109-6.835-5.782-12.591-12.306-14.63s-13.555-1.207-20.337-.355c-7.96 1-50.657 11.175-60.052 10.106" fill="#fff"/><path d="m563.058 1462.676c-4.338 0-8.449-.287-12.225-.906-5.45-.893-9.145-6.034-8.252-11.484.893-5.452 6.031-9.151 11.485-8.252 20.146 3.301 55.808-6.091 74.236-16.691 2.868-1.65 5.861-7.733 5.93-12.055.024-1.537-2.233-3.971-5.291-4.926-4.563-1.426-10.432-.689-16.107.021-2.125.268-8.385 1.556-15.012 2.92-23.072 4.749-39.98 8.053-47.416 7.2-5.488-.624-9.43-5.578-8.806-11.065.625-5.488 5.58-9.43 11.066-8.806 5.091.499 29.426-4.511 41.123-6.918 8.719-1.795 13.787-2.827 16.552-3.175 7.065-.888 15.856-1.991 24.567.733 11.545 3.608 19.491 13.614 19.321 24.332-.154 9.734-5.798 23.231-15.954 29.073-18.572 10.684-50.536 19.998-75.217 19.998z"/><path d="m1153.444 1286.349c0 58.284-41.377 111.84-74.258 111.84s-44.817-53.556-44.817-111.84 18.691-123.795 51.572-123.795c17.964 0 50.605 2.55 61.521 29.296 9.065 22.209 5.981 68.058 5.981 94.499z" fill="#fff"/><path d="m1079.185 1408.19c-13.773 0-32.622-7.082-44.197-40.818-8.777-25.579-10.619-58.179-10.619-81.022 0-31.329 5.132-63.124 14.081-87.233 14.283-38.483 33.71-46.562 47.492-46.562 37.347 0 61.161 11.949 70.779 35.517 8.139 19.94 7.479 54.226 6.947 81.774-.115 5.979-.224 11.626-.224 16.504 0 28.888-9.696 59.325-26.603 83.507-16.781 24.004-38.335 38.334-57.655 38.334zm6.756-235.636c-10.359 0-20.835 12.218-28.742 33.521-8.154 21.97-12.831 51.229-12.831 80.274 0 30.576 3.298 56.35 9.536 74.531 6.218 18.121 14.724 27.31 25.28 27.31 12.604 0 28.416-11.416 41.264-29.794 14.613-20.901 22.994-47.162 22.994-72.047 0-5.07.111-10.812.228-16.89.469-24.354 1.112-57.709-5.468-73.83-6.25-15.312-23.833-23.075-52.263-23.075z"/><path d="m1098.529 1163.067c-32.163-2.415-81.893 1.837-111.024 16.543-9.143 4.616-16.143 17.693-16.863 27.91-.673 9.545 7.122 18.041 16.086 21.389s18.855 2.721 28.4 2.047c11.204-.791 65.932-7.337 75.57-10.901" fill="#fff"/><path d="m1003.63 1241.488c-6.616 0-13.643-.688-20.402-3.212-14.215-5.309-23.494-18.246-22.562-31.46.881-12.496 9.007-29.407 22.332-36.134 31.181-15.74 82.133-20.154 116.28-17.588 5.507.413 9.637 5.213 9.224 10.72-.414 5.508-5.209 9.641-10.721 9.224-32.474-2.436-79.235 2.104-105.77 15.498-5.333 2.692-10.871 12.261-11.395 19.688-.332 4.713 4.625 9.455 9.61 11.316 7.085 2.646 15.786 2.033 24.199 1.44 12.815-.904 65.126-7.466 72.806-10.306 5.179-1.913 10.932.73 12.847 5.912 1.915 5.181-.731 10.933-5.912 12.848-11.687 4.32-68.628 10.812-78.334 11.497-3.767.265-7.897.557-12.202.557z"/><path d="m1096.093 1287.983c-29.923 8.097-65.188 9.615-98.302 1.149-10.393-2.657-20.503-14.452-23.546-24.739-2.843-9.611 3.212-20.059 11.625-25.506s18.67-7.038 28.584-8.504c11.637-1.72 65.583-11.799 76.245-10.329" fill="#fff"/><path d="m1044.231 1304.824c-16.701 0-33.25-1.999-48.917-6.004-14.976-3.828-26.974-19.133-30.659-31.59-3.876-13.104 2.612-28.211 15.779-36.736 10.386-6.728 22.68-8.544 32.558-10.003 2.436-.36 6.915-1.121 12.584-2.084 36.729-6.236 58.204-9.395 66.488-8.259 5.471.754 9.295 5.801 8.541 11.271-.754 5.472-5.798 9.303-11.272 8.541-6.808-.938-45.749 5.675-60.408 8.164-5.788.983-10.36 1.76-13.01 2.151-8.787 1.298-17.872 2.641-24.61 7.005-4.825 3.124-8.938 9.317-7.472 14.275 2.292 7.749 10.125 16.274 16.433 17.887 29.546 7.554 62.65 7.157 93.214-1.112 5.334-1.445 10.822 1.71 12.265 7.04 1.443 5.331-1.709 10.822-7.041 12.265-17.692 4.788-36.174 7.188-54.474 7.188z"/><path d="m1100.623 1348.975c-28.455 10.746-69.724 8.814-98.925-.971-9.165-3.071-17.476-14.335-19.534-23.779-1.923-8.823 4.005-22.51 11.922-26.852 7.918-4.342 17.241-5.098 26.247-5.763 10.571-.781 66.308.967 75.759-3.627" fill="#fff"/><path d="m1054.762 1366.186c-19.101 0-38.959-2.908-56.241-8.699-13.553-4.541-23.577-19.429-26.127-31.131-2.903-13.318 5.145-31.312 16.884-37.75 9.966-5.465 21.251-6.299 30.319-6.968 3.416-.252 9.961-.266 19.021-.285 14.095-.028 47.057-.097 53.211-2.415 4.944-2.332 10.86-.256 13.258 4.675 2.414 4.967.345 10.951-4.623 13.365-7.463 3.627-25.876 4.301-61.805 4.375-7.657.017-14.889.031-17.59.23-7.875.582-16.02 1.184-22.175 4.559-3.92 2.15-7.954 11.396-6.96 15.955 1.461 6.704 7.75 14.688 12.94 16.427 29.205 9.784 67.985 10.246 92.215 1.097 5.166-1.948 10.937.657 12.888 5.822 1.951 5.167-.656 10.938-5.822 12.889-13.885 5.243-31.3 7.854-49.394 7.854zm37.002-87.217c-.015.007-.029.014-.042.021z"/><path d="m1090.005 1396.395c-22.091 6.482-60.944 1.217-82.424-7.839-6.742-2.843-12.369-11.82-13.382-19.066-.946-6.77 4.194-13.205 10.419-16.029s13.304-2.861 20.14-2.847c8.023.016 51.646 4.876 60.838 2.663" fill="#fff"/><path d="m1065.814 1409.248c-21.723 0-46.19-4.763-62.118-11.478-10.796-4.553-18.053-17.255-19.4-26.896-1.484-10.615 5.174-21.521 16.19-26.52 8.316-3.772 17.176-3.748 24.292-3.741 2.787.006 7.939.408 16.807 1.12 11.907.957 36.685 2.942 41.678 1.819 5.374-1.29 10.766 2.013 12.059 7.382 1.292 5.37-2.016 10.771-7.386 12.064-7.28 1.752-24.466.554-47.95-1.33-6.741-.54-13.107-1.051-15.249-1.056-5.722-.02-11.629-.023-15.987 1.954-2.917 1.324-4.859 4.016-4.646 5.538.598 4.28 4.314 9.95 7.363 11.236 19.59 8.26 56.137 13.203 75.723 7.457 5.301-1.551 10.856 1.481 12.411 6.78 1.555 5.3-1.481 10.856-6.78 12.411-7.708 2.262-17.07 3.258-27.006 3.258z"/></svg>